<mxfile host="app.diagrams.net" modified="2023-07-24T22:33:52.607Z" agent="Mozilla/5.0 (Windows NT 10.0; Win64; x64) AppleWebKit/537.36 (KHTML, like Gecko) Chrome/114.0.0.0 Safari/537.36" etag="xkl9YIqoWPSkaBr1gO0T" version="21.6.5" type="device">
  <diagram name="Página-1" id="zX86oqFd68hosavzufjd">
    <mxGraphModel dx="1050" dy="541" grid="1" gridSize="10" guides="1" tooltips="1" connect="1" arrows="1" fold="1" page="1" pageScale="1" pageWidth="827" pageHeight="1169" math="0" shadow="0">
      <root>
        <mxCell id="0" />
        <mxCell id="1" parent="0" />
        <mxCell id="kpIaRWWuOvW8xcpBkI8O-1" value="Você deverá criar a modelagem para o catálogo de filmes, observando a seguinte situação:&#xa;&#xa;&#xa;- um filme possui apenas um único gênero.&#xa;- um gênero pode definir mais de um filme." style="text;whiteSpace=wrap;align=center;fontSize=13;labelBackgroundColor=none;fillColor=#B8B8B8;strokeColor=#5182E6;fontColor=#333333;dashed=1;gradientColor=#F7F7F7;gradientDirection=east;" vertex="1" parent="1">
          <mxGeometry x="90" y="60" width="640" height="100" as="geometry" />
        </mxCell>
        <mxCell id="kpIaRWWuOvW8xcpBkI8O-2" value="Possui" style="rhombus;whiteSpace=wrap;html=1;fontColor=#000000;labelBackgroundColor=none;fillColor=#EDEDED;fontSize=14;" vertex="1" parent="1">
          <mxGeometry x="320" y="187.5" width="200" height="110" as="geometry" />
        </mxCell>
        <mxCell id="kpIaRWWuOvW8xcpBkI8O-3" value="&lt;font style=&quot;font-size: 14px;&quot;&gt;Gênero&lt;/font&gt;" style="rounded=0;whiteSpace=wrap;html=1;labelBackgroundColor=none;fontSize=14;fillColor=#dae8fc;strokeColor=#6c8ebf;gradientColor=#E8E8E8;gradientDirection=east;" vertex="1" parent="1">
          <mxGeometry x="610" y="200" width="160" height="85" as="geometry" />
        </mxCell>
        <mxCell id="kpIaRWWuOvW8xcpBkI8O-10" value="" style="endArrow=none;html=1;rounded=0;entryX=0;entryY=0.5;entryDx=0;entryDy=0;exitX=1;exitY=0.5;exitDx=0;exitDy=0;" edge="1" parent="1">
          <mxGeometry width="50" height="50" relative="1" as="geometry">
            <mxPoint x="520" y="242" as="sourcePoint" />
            <mxPoint x="610" y="242" as="targetPoint" />
          </mxGeometry>
        </mxCell>
        <mxCell id="kpIaRWWuOvW8xcpBkI8O-15" value="" style="shape=image;verticalLabelPosition=bottom;labelBackgroundColor=default;verticalAlign=top;aspect=fixed;imageAspect=0;image=data:image/png,iVBORw0KGgoAAAANSUhEUgAAAmIAAAGZCAYAAAAq612hAAAACXBIWXMAAA7EAAAOxAGVKw4bAAD/AElEQVR4Xux9BYAdx9H0HIOYmZkZzJaZQ45DjhOH0WH8wwxfmMkOOY5DZmaULJbFDCdmOob3V/Vuv5vbe3TSSbrT9eZ734PdnZ2p3fOUqnuqnbPNEDAEDAFDwBAwBAwBQ8AQMAQMAUPAEDAEDAFDwBAwBAwBQ8AQMAQMAUPAEDAEDAFDwBAwBAwBQ8AQMAQMAUPAEDAEDAFDwBAwBAwBQ8AQMAQMAUPAEDAEDAFDwBAwBAwBQ8AQMAQMAUPAEDAEDAFDwBAwBAwBQ8AQMAQMAUPAEDAEDAFDwBAwBAwBQ8AQMAQMAUPAEDAEDAFDwBAwBAwBQ8AQMAQMAUPAEDAEDAFDwBAwBAwBQ8AQMAQMAUPAEDAEDAFDwBAwBAwBQ8AQMAQMAUPAEDAEDAFDwBAwBAwBQ8AQMAQMAUPAEDAEDAFDwBAwBAwBQ8AQMAQMAUPAEDAEDAFDwBAwBAwBQ8AQMAQMAUPAEDAEDAFDwBAwBAwBQ8AQMAQMAUPAEDAEDAFDwBAwBAwBQ8AQMAQMAUPAEDAEDAFDwBAwBAwBQ8AQMAQMAUPAEDAEDAFDwBAwBAwBQ8AQMAQMAUPAEDAEDAFDwBAwBAwBQ8AQMAQMAUPAEDAEDAFDwBAwBAwBQ8AQMAQMAUPAEDAEDAFDwBAwBAwBQ8AQMAQMAUPAEDAEDAFDwBAwBAwBQ8AQMAQMAUPAEDAEDAFDwBAwBAwBQ8AQMAQMAUPAEDAEDAFDwBAwBAwBQ8AQMAQMAUPAEDAEDAFDwBAwBAwBQ8AQMAQMAUPAEDAEDAFDwBAwBAwBQ8AQMAQMAUPAEDAEDAFDwBAwBAwBQ8AQMAQMAUPAEDAEDAFDwBAwBAwBQ8AQMAQMAUPAEDAEDAFDwBAwBAwBQ8AQMAQMAUPAEDAEDAFDwBAwBAwBQ8AQMAQMAUPAEDAEDAFDwBAwBAwBQ8AQMAQMAUPAEDAEDAFDwBAwBAwBQ8AQMAQMAUPAEDAEDAFDwBAwBAwBQ8AQMAQMAUPAEDAEDAFDwBAwBAwBQ8AQMAQMAUPAEDAEDAFDwBAwBAwBQ8AQMAQMAUPAEDAEDAFDwBAwBAwBQ8AQMAQMAUPAEDAEDAFDwBAwBAwBQ8AQMAQMAUPAEDAEDAFDwBAwBAwBQ8AQMAQMAUPAEDAEDAFDwBAwBAwBQ8AQMAQMAUPAEDAEDAFDwBAwBAwBQ8AQMAQMAUPAEDAEDAFDoCECWQaIIWAIGAKGQD0C9913X7fs7OzcsrKy4lgslo09/O+kvjv+lpeXV1tdXZ2zZ8+eTgcOHGiXhQ3HxOrq6vgxVllZmRV+dminaOvWrX3xnW3EcnNzq2tqamJ4HXjnO9/5yFvf+tZKw98QMATaLgK5bXfoNnJDwBAwBOoReNe73nXpww8//LF3v/vdffBrfnl5eVeQp7yQiJFo6cvl5OTUYF8uyFghCFUBWyEBC9+xqy5HW8axJF5yTLjxOL5qKioqvoL3H9p9MAQMAUPAEDAEDAFDoE0icNdddw2aPXv2dzH4CrzqQpKkZKlZ3knSoITF+A61LQZyJu3i/fCvf/3raW0SeBu0IWAIGAKGgCFgCLRtBD772c+e371796VAoZbEiEQpVLZSErDocSRXel6i87lfCZ7uD3+rHT9+/B1t+y7Y6A0BQ8AQMAQMAUOgTSHw1FNP5V977bUfgiJ1VAkY35H7FVerUiljSsR88pWMxFEJ07ZJvvidiph+xnnl3/rWt+a0qRtggzUEDAFDwBAwBAyBtonAT37ykwn9+/d/CKOvURJGYkQipQQplSqmYUU9PpGS5hM1VcNIwFQ547u+cH7d2LFj72mbd8NGbQgYAoaAIWAIGAJtBoHXv/71by4uLt5K8kRCpeqUkik/xJhKEWvqPr9d/azEjG3hc+mXvvSlG9rMjbCBGgKGQBwBs6+wh8EQMATOegRuv/32fj/72c8+uWzZso9CrcoDCaMNhYwbKxxdYWGhwwpG+c7fZ86c6UaPHu2wKrIBNtzXsWNHh7wyhzCmq62tdSBR8s526GIBouXy8/NdUVGRvHRj+3fccYdbvny5HMPj9Vy2O3jw4Gf++c9/3oiFAwfP+htiAzQEDAFDwBAwBAyBtoHABz/4wZkgRhsx2lqqYMwDY+iwoKBAwoN81zyuzp07xz73uc/FSkpK6POV8AVfsBiIF7hT07c//elPki+mYc1IXln1pz/96de1jbtiozQEDAFDwBAwBAyBsxoBGLN2PPfccz+JQZaR/Pj5WX4OmH6eNm1a7F//+lcMylXTGVaGZ8D8NTZr1qw4GVMrC80j69u37/zFixe3O6tvjA3OEDAEGiBghq72QBgChsBZh8BXv/rVye94xzt+c/jw4RkgOTkM/WkokoNlCFG/M0x46623OlhZuBEjRsSxgKGrq6qqkhCinqM7oZY5tO0OHjzo+JnHsB22qyFKts99mzZtcgg3ujFjxriuXbu6j3zkI27p0qXSNo/heXxnqHPnzp3TfvrTn96M6/zurLspNiBDwBAwBAwBQ8AQOLsRePrpp3OvvvrqD4HcHKMKpqshGY7kd758NWz48OGx3/72t7HS0tK4psWQJHK1YnPmzIlNmjQpNnnyZHlNmTJF3qdPnx6jejZy5MgYFKxYnz59Yv369Yu/+F1/79Gjh1zv/e9/fzzMSVXsqquuivdHk/ZVscM5yx9//PH+Z/edstEZAoaAIWAIGAKGwFmFwM9//vOxQ4cO/TcGVaM2FEpuoo72JGRveMMbYvPnz49BmYqTMChSsS9/+cuxLl26nLSjvm/iOnDgwNhzzz0n14FiJiFQ5qYpOdT+his5y2+++eaPnFU3xwZjCBgChoAhYAgYAmcvAm9605tegxWKJRhhneZdqRrm+32R+PTs2TP23e9+N7Z3794GmV3z5s0TFQyJ/Y2Us6iSpgRKf9drqTeYb42hChxCpbHjx49Loj/fL730UrmOlj5SMsbfoIqtfvDBB4efvXfMRmYIGAKGgCFgCBgCrR6BP//5z0MQPvwxBlKl5Ei9wXzXeyVIF154YeyJJ55osOoRuV6x//u//4sNGDAgrlDp8VFjVlXWoo76em1/FWR0QQAJ3vPPPx8nfw888EAMVhhxIqbnhkpa3ete97ovtvobZAMwBAwBQ8AQMAQMgbMTgdtuu+1SJL8vowpGIuQrSqoyKRnq0KFD7FOf+lRs/fr1DVSwFStWxG666aYYTF4bkLBUzvo+6fIJm6pjPkmLEjRei6FJvmiDccstt8TLH/nHcizwNtt3//33Dzs7756NyhAwBAwBQ8AQMARaJQJQkrpfdNFFX1MVzFepSMDUH0wJEVYrxv797383SMivrKyMwVxVkvGVAGX67qtk/udU52tf2rdvHwO5ipPBxx57LAZz2EbFxsPj62644QZTxVrlU2qdNgQMAUPAEDAEzkIEvv71r8/o1avXXFXB/Pwqze3SJHl+Z17WqlWrGqhgVMVgIUHFKWEuWDpC1lQiFlXXLrvsstj+/fulT/Qse9e73iX9YH+phPkLDUAqD/zmN7+ZcRbeShuSIWAIGAKGgCFgCLQWBF588cV2r3nNaz7BcB1JC8mWH37U1ZG6EpG2FFhFGTty5EiDfDCqUeecc06jXLB05Mvf31Qipv1VgkgCePfdd8fJ4cKFC2UBgV6DRExJJQnn5Zdf/u3Wcp+sn4aAIWAIGAKGgCFwliGAOpFT4Nn1EIZVq2SFZEZDkkp0+E4Sg3Be7JVXXmmggu3bty/2ne98h6sRT4qE8RonQsT8kkZsg6szYQYb7+MHPvAB6ZfmnPGd3mehOlaKMOrUs+y22nAMAUPAEDAEDAFDoKUj8O53v/sdyKva4ZMt3xtMbSO4nyTrK1/5SkJbCoYDeWyU7GhbvuKV7nNTiVh09abWtfzd734XJ2JLliwRE1hV+vxyTFTFYCT755Z+r6x/hoAhYAgYAoaAIXCWIAAPrUEIIf4aw6nxyRNJjO9Er6RpxowZsUceeaSBOevRo0djv//972MMU/pKlp7jE7pE5CodIct0fzRHTL+zz1TquFVXV8dQYqnBwgElmWGh8mOw2Lj8LLm9NgxDwBAwBAwBQ8AQaKkI/L//9/8u79Sp00YQllpfIfLNUjXfig74H/zgB2MbNmyIu9bzAxPy3/rWt8oKynQrG5uqcGVKwNIdx9AjyyvptnHjxtj48eMbkEbflwwllu5sqffM+mUIGAKGgCFgCBgCrRyBp556queVV175ZQyjKmqkqoRMzVpJckha/va3v4lLvW4sV8TffEKTLvx4pogYx0BVDEXB4yQSxcolPEmS5ufAhTlmZV/72tcua+W32bpvCBgChoAhYAgYAi0NgR//+MeT4Wz/FAhHPBSpVg5q5+AX7kYtxtjy5csbJOSXlJTEPvOZz8Rg8tpgBaJfbiiRSnWmiJiu+sTY4+PgGCZMmNDAVsNXxcaOHXvP6tWr81ra/bP+GAKGgCFgCBgChkArROCFF14ofP3rX/8+JOSzTqSoQJoDxs8aWlQCxeLZJC7039KtpqYmRmNUmLzGE/J5LombqmGqMLUkIqZ9GzJkSGz37t3x8TBcqThEVTF8r8Lqz+tb4a22LhsChoAhYAgYAoZAS0LgD3/4w8Rx48bdhT7Vqr1DlCj5ie5XXXVVbO7cuVIeSDcmu3/jG9+I9e7du5E5q68kaU5ZSyNiqvJxDLpt37497nXmLyjQHDkQt2fWrVtnqlhLepitL4aAIWAIGAKGQGtC4EMf+tANqP+4hcRIV0IqcdKQnZKmbt26yYrCHTt2NAhFLlq0KPbGN75RlC9V05Rw8V3tKrQdn9RFLSUSEbTT8Zv2lwXHly5dGh/fj370owa1M7W/4bgqPvnJT76lNd1v66shYAgYAoaAIWAItAAEUPNx0MSJE38DYlGp5EkJj5InX72Cf5bUZmRtSN1KS0tjKPsTGzFiRDwXTMOZbCuRLYV/DZ/UpFLKTjURU3sK7Q+LkjPMym3v3r2x888/X8bnh2qVXPbv338hTGv7tYBbal0wBAwBQ8AQMAQMgdaAAIjGFVC3lqOvdZrDpURDQ5NKjFgc+8Mf/nBsy5YtDWwpkKgeu+WWW2JFRUUJSVg0p8onaEr8fH+uM0nEon0dPHhwbMGCBXHCyTJIqg6qy75HXms/8YlPvLs13HfroyFgCBgChoAhYAicQQRQJ7ITEvI/DQJU6itWSpJ8d3zuHzp0aOyvf/1rrKysLE5KaHh65513xqZOndrA9PRkVCvNuTqZNk7mXCVi/qpNeqJRFWMe3KFDh2KzZs1qUJLJx6pPnz6vvvzyywPP4K21SxsChoAhYAgYAoZAS0bg17/+9TSsdHwOfZQ6kT750BCihttY6BqELTZv3rwGuWB79uwRWwrmiiGvTOwpunfvHoPpq3ymqSv38TNfICgxrq5E+E5e/MxkfipOo0aNilFtUwLlJ/SfDKk6kXM1JKnj53vHjh1jL730Unz8COXGWFdTSaOfD0dMkSNH3zXbDAFDoBUjkNWK+25dNwQMgRaMwNvf/vZb//Wvf/0Q+V3dQDIcVB7pLQiIA9OQd/0NhMl99KMfdagt6UCq4vuRoO+effZZB3LiEI50qCcp5/Dc2tpaB/LmoCBJuyAr8g7LC/mN1+QGk1fXs2dPh9w0BwLnnnnmGQe7C7dw4UIHN/sziiDHoXiw/xzT2972NveXv/xF+n/s2DH3nve8xwHHOHY6VuIAUrnz3nvvveTSSy9de0YHYhc3BAyBE0bAiNgJQ2cnGgKGQCIEkNs08tvf/vaXXn311beCZOQowSCxIAGLkjAkpTvYN7gLL7xQyAf3k0itWLHCLV682ME5X8gVQplyOb4jVBn/zmNJZrjxXCV7PIbXRq1JB5NUB7VJ2uex3IdVl+7pp592cPR3UOGEsOmm7el3bTc63uh1m/pEJDq/c+fO7h//+Ie7+uqrpbmHHnrIIS/OHTx4MD5OPY8hTJRy+iKO/15Tr23HGwKGQMtAwIhYy7gP1gtD4KxA4OMf//jr//SnP/0YSs5AkAX57wuJk6pWqgBR+UFo0X3gAx9wSDp3vXr1ihM0Eg74hbnNmzcLJkrOfFKkKhIJEskWX0rIuA8qnLQ/adIkN2zYMOkDr6nXZ5skd9zg2+VWrlwpqhOVN36HYWwDUsbj/fP1+vyNG6+vJLM5biRCtA4Fy0UdLC8vdyBbDsqXXIdKmL7zWhjntjvuuON6nPNqc1zb2jAEDIHTi4ARsdOLt13NEDgrEXj00Uf7ff/73/8kwn63kXtpyFDDj3wnmaESxY0EiSrYddddFw8pkjxhlaTDykF34MABIU9RZcoHTwmJhil9koI8MQezWMeQJzcSJg2D+iSG55KQ8Z3ki+TvgQcecM8//7yDoueQnxYnWkq42I6qetEwazLlrCk3nTgRv7vuusvdcMMN0jck5bvrr78+rorpdcKxxLDve+j3F5tyHTvWEDAEWgYCRsRaxn2wXhgCrRaBr3/963Nuv/32b27duvVcDCKugvn5T1SrSB5Irt70pjc5GLRKzpZuJF5UpWBPIYSIRMTPIUsEjoY8leRROSouLnYjR450qMnokLjvsPJSrquqGdvRkGVUVeM1SdhIzODjJWHRJ554QogZxib7uCk59MKDjUKjzXEzGZq85557pD8kfzDBdb/73e8cEvbjCqMSsnbt2u1BeHLOa17zmtXNcW1rwxAwBE4fAkbETh/WdiVD4KxCACpN1x/84AcfhuHqF0EUCjVZ3s8DU9JAIgH3ePf//t//cyjY7UAchNjwnG3btkmOFtUnJUxKkjQxP5Eyxn0aMiTR69evn4MBrOvbt6+0Q4WNm+aWaehSk/hJyLRdzTtT0hMmwkveGFU6WHAIKSI5Q11IadcPR+pihOZQxNgu+8U+/fGPfxS8uHFxAVUxXt9X9cKHKoaE/Z8i3+2TZ9VDZoMxBNoAAkbE2sBNtiEaAs2NAAjCTBSf/u6mTZsuBgnJJgHxSZNPknjtm266yaEsj4MvVvw4qlVUwRgC5OpAkjYlYhr+8xP8o2PQpHueB5f9uApGgqf5XDxHiaGSNlXIlEzxXcOW3KdETVdlaoj08OHDDmWIRCVDsXJJ9vcT/JsLY2KgYVwuZADRdbDoEGL5+c9/3v3sZz+Lq3yKeUg4j/3whz+8Hnl6tAuxzRAwBFoJAkbEWsmNsm4aAi0BgSVLluT9/Oc/fzf8rb6C1Yy90SfJyVcFS0mEEhTmaL3//e93H/nIRxxXA2peF9UvJuRTDSP5URKm4b8oIVK1zSd4vAbtLKiCwStM2tBcML9Pipv2kd/9sKTfd1/R8pU9kjFV1kiS2G+qZFzRSHsNhjL9LargaZjVH0dU1VLSqRhpKPdXv/qVe+973yvNM3TLvLENGzbEc+v0Whg7yyL9Ef16X0t4VqwPhoAhkBkCwXpw2wwBQ8AQSIMAcqUGwePqR6tWrXodDgWPqF/Bp2SK4T4lUxdddJH7whe+4C6//PJ4CFBtKWhNwdWRSnCUQClR8buiYT/NBaMyRNI1ZswYScinNxiv74caeX40TBglWUrIfGIWhcAjOXElj9cZNGiQg0GskCKSo8cff9w9+OCDbv369e7IkSNy7ehqT23b36cY+osbODaSMb74mflzSs64ApSqIokYN70G8cOxWag/+ebf/va3f8Nq1BfsgTYEDIHWgYApYq3jPlkvDYEzisDnPve5a2FL8X/79+8fBfKU5ds2KGEgyeJn+nW9+c1vdl/5ylckb0sJEIkXV0SSrPBYkg8NA2poMxER8kOeJEHML+OqS/qDMadLfcc0t0rDjCcLmK6MjLbjK2W8JvvD8ezbt088yaiUPffcc27dunXxU33VjT8mWvHJ33UBAq/B8X31q191SMB3qCgg7X/ve99zsKpwDJMq+VVrEGLJ8kggp39GyPddJzt+O98QMARODwJGxE4PznYVQ6BVIoCwW1esivwsbCmYBJ7nh/x86wa1kGCuFo4X8sAVjNxI2tauXSuJ7kogfNd7kg8qP9wSJeVzPwkYX1ShaM5Kp/yo4qXqUjIC1dQboH2JXsc3lGWfSIRIxjQsy+/MJaMFBpUyWk9wRadufrs+nn67b3jDG2RlKWprymkkd1/+8pclN01JsLanJrUhYa3A/q3YN7qp47XjDQFD4MwgYETszOBuVzUEWjwCP/nJT86DN9gvsEpvMhPBNGdJw2b+qkESqbe85S2yKpL2EboxjEgCxpWH/KzqmZIbJSL8nTlffpK9tqHmr6NHj5aVlz7B8/O+eHxzkTAlhYlWQfI39klzxpQoqiLHd9SHlP1c4bh8+XKHagNiFksc1CzWXxSgCwnofwb10b3jHe+QnDpWFfjDH/7gfvSjHzmWe+KmBrmKv/aVLvu4D7tw7o1YTDG3xT9g1kFDwBAQBIyI2YNgCBgCDRBAnlHxL37xi3eAPHwPik/HaIK5rjrUlY1MlKc7PutEMoSmGxUhhiJJPtTPyydeGlrj8VSWqBodPXq0kSpG0sPcKK68nDlzpoQ0SepUGVIbDCViSkxOxW1l/4mHhgP9FZj+AgAlSSSo7C8JFYkUFTKGLfk6dOhQA6d85tR96Utfcpdccol0ff78+Q73Qcod+Qn80cURITGuRmHzZ0GEP4WanctPxditTUPAEDAEDAFDwBA4xQig2PREkJ6HcRm6l8ZAKGJQYORdv1Mc42e+IwQZQ9gMfKR+Qy5Y7Jvf/GYM4cMYcrhiICJyrL70XH33f+dv0Rf38/pIyqeDfOzXv/51DMW6YyBjMRC4GEheDKQmhrBnDDYY8c9Imo+B2MmL+/jib/7v3Ke/NeVd2/LP99tnW/4xpaWl0l+ubMSK0RhWW8ZAupjPFUOJohgWNcTg6i8g8rg777wzhvsgWCj+xIBYgNzF7wf2s5L6scsuu+w9qG4QxIJtMwQMgVaFgClirep2WWcNgVOHAApL3/K///3v21Bv+mHSZzRSVCeGzajsqCUFFRjaUrAQNcNoTM7Xjcas3/rWt8TW4UQ3VeA0KZ7t+Koc+8LwJ4uEv/a1rxX/MNaq5Ka5WLrSkn3WlZmq4J1ov070PA3p6spQhi25yIAq4Jo1a6TPU6ZMEeWMqyFhkutAxERF5OavvlQbjDAxvwZk98W3v/3tn0DocumJ9s/OMwQMAUPAEDAEDIEziABI0yCE/H4LssNK13EVDJN9XIFRFYz7Z8yYEXv44YdjyHWKy2BUgJCXFIOtQ1w547FNfVH14XWpAvFd+6OKnKpj/J2fEQqNXXnllbEf//jHMeSiiULGF5UxVcioWlExiyphJ6qGNUU547Gq0vEzlTFeF5YUgh/zulQFu++++2LnnHNOXG3k+BWPBIpkBRL5v4FC5Z3P4KNjlzYEDAFDwBAwBAyBk0EAK/MuhWv7GrRR54cPlQQxrKhkCisDY7fddpuEBf0N7vox2FVIGDJKnJpCxHh9JR8+8dM2tH8aovPbJnHDisrYO9/5zhgJDawehJBBbYqHJ30CpSHL00HG/NAoySEUR+mbkjBYgsSgLErolWPSUC4/633wPtdifwl8wq44mftu5xoChoAhYAgYAobAGUQAK/jaIa/oS+gCCzKKukQCQJLDdxIb/q7vWLEYu+uuu4TY6MbPcNiPwdk+TtZUsWI7quJkSsZ8tcs/R3/Xd1XLfGLmExYSRih8MZRgiiFUGmPOGkKUokZF87iaqm6dyPG+Gsc+UAljrhg3JO3Hrrnmmjh+SsKUkEYUsSp4i/0Bhq39z+CjY5c2BAwBQ8AQMAQMgZNBAPUIp0I9ehRt1PqJ95z8NRypxIak541vfGMMBaeFONAwlBtsGWJYnRfr2rWrkAglDqqIJSNVmZKyKBHzE/qV5EXDlPyuxFH7hJWEMRTNjv3tb3+LlZSUCAFiMjwT/E+HGuYvDiAJUxWMJBb2IDEY3sZJWJS8euOjWnkE+XBvPpn7bucaAoaAIWAIGAKGwBlEALUds0Cq3gXSdBTdaBCKVFXMJzdIgI8hCVwIi24kEih6Hbv44osTrm48EaLV1HPSrbJM1B68x2LIqYp97GMfiwEHUcZ0xSUJElUrJWYaStT8Lr7rqkwlVroKU9811En1TT+rEsb2qcjpBl+x2Jve9CZZ/RjFPYGiWNO3b9+Hv/vd7446g4+OXdoQMAQMAUPAEDAETgYBmIKOQnjxr2ijRomKn2ul+VlKBJgA//TTTzfIBWPeFUrsxEAMGhGIppKpU318lKyp8qc2GAjLyuIC1IkUhYzhQrXBUNLl53bxsy4AiJIx/c7zNPypx7JNVRH5meFdrPiMq4iqIKqCpwsVQqJ8HP38GGwp6s3ZTuYhsHMNAUPAEDAEDAFD4PQjgAT218FigoUP66jC+KqLn2dFMtCjRw/xtNq1a1cDErZo0aIYyu5IQn6UtDU1F+xUkzBtP5rwr8RTf2cYEzUrY5/61Kdijz32mBAtKldUynxViyqXrrjkMVEvMvUM09WRTMbnOf6qyK1bt0ooF/chnnvnk0MlYiGWNXDVnweT3Mmn/2mxKxoChoAhYAgYAoZAsyAAJaUniMZv0Vi1khBfBfNzrUgEzj333NgjjzwSV3DIxEgqqBwhSTyugkXbSrTC8XSRrXTXSZZb5itR/AziE6NK9rOf/UxWhTKHi4SMZEoJFhUvP0SpZM1XxFQJUxWMOWlw0xfLDyVb/urUyKIImrOW4Z597YEHHqg3Z2uWp8EaMQQMAUPAEDAEDIHThsBXvvKV2UikZ6kbTu6iYin5UFWMJIC/04vr/e9/f2zbtm2igmlC+bp16yTRnft5btRhP7qyMh0pOhP7/Zw3XYigOCgR9RU9YoPC5TGUa4rde++9MZQlEkxIzFQVi66c1LAl30nc1F+Nodyvfe1rMebaKQnzV0FG1Mia9u3bv4o6keectofELmQIGAKGgCFgCBgCzYsAEtELb7jhho+BUBxWApbIUkKJGYpox+64444GthRUc1hih2E7JU9R1au1qGA+CdXP/spQHYf+5o+LKhnqPooNxssvvywKGfPJ1JTVL6vE31QFI3GjbQZtKZTkKen1yaB3rXLch9t/+ctfBuUBbDMEDIE2hYCVOGpTt9sGezYj8POf/3z6//3f/30PytYcjDObY2V5H/ACeenGUj8sE4Q6kQ5Foh18wOL74PjuUMvRIanc7d271xUVFUn5IL6z0LWWGtITQCakIDXL9sAYVsrxsKwQyx4hqd+tXLnSoYi4gzoUvwb7pIW6tXA3d7Jt7Sc/s1393T/uZO8h++zjEW0v0X6OhSWVoBC66dOnO5A0OY3liVjoXDFl0XJixzJFMLqVY4gJNy3czbGE16jDvh3XXXfde2BC+/jJjsvONwQMgdaJgBGx1nnfrNeGQByBpUuX5mI14wdRJ/IbIEGdOclz4ztfPsEhmRo4cKD78Ic/7N7znvc4hC/jpAgEzi1ZskTIE8kSyRrP5UvbIoHR2of8rNfi8SQabB/1D9348ePdkCFDHMJ0bsWKFe4///mPELK1a9c6hPbiBEvP5zW0FqNeS8nLmbrVSgZ9UogC3W7o0KHuda97nXvLW97ioGRJ3Uhur776qvvpT3/qUHbIQSGLY0ZsiIuSSuKEVxVwuucjH/nIxxBG3nOmxmjXNQQMgTOPgBGxM38PrAeGwAkj8I9//GP817/+9e8hn+tKEKNcJV6qIJE0kUiwwDS3iy66yCFvyZ1//vlCtrhxH8nXggULhDiRWCjJUjVNv/ukTn/jNamC8X3YsGEOIU1HwqLH6nWoED3//PPuhRdecFhI0EAlI+ljP3wS6atWqRSsEwYvzYn+WHmo34d3vetdDrhL8XP+TqJJXEk0ib0/Hh8n5t+hqeNQ194HLP55qvpu7RoChkDrQcCIWOu5V9ZTQ6ABAp/85Cdf8/vf//5XWNnYT1UbJTIkAiRHqsYwbPje977XfeYzn3GoaRgnWnDIFxWMJElDZ6pI+aFBvbASM1XFlOAxFDlq1Cg3ZswYB/PUBooQz2WbDG/yPCpi69evd7CMcA8++KDDKkXHkCg39pfHqoIUJUCn+xEgjiRW7BfxhBebEK7Xv/71Qrb27NnjkEPm/vrXvzqYu0r39B74mIX3pxbll5ZBiXw7VmeuOt1jsesZAoZAy0TAiFjLvC/WK0MgKQJYzdcPuWCfefHFFz+MSV9UMN1IdEigSJhIFJBcLgrVF7/4RQmn8Tfuo/LFUCRVMHhexUOYSoZIsHgsNz+s5udP8XcSFHiPObjWO5QTiocXNZfMz/niZ/aNfSQpY9+YO8aQJcbkUEbJbdmyRZQxDXXq8c2ZI5bpo6WKmKqMcMN3n//85yXsyg0VBty3v/1th3qR8dw5P1zLvnuktmLs2LE/AhH+7q233lqaaR/sOEPAEDj7ETAidvbfYxvhWYTAV7/61Qt+85vf/AKJ9BMD8SXIAVM1i0SA30mSoL64m266yX3uc58TtUo35i+RgK1Zs0ZUHoYiSXR4LgmQEiH9TXPElFTxnftIpqgQUQXjtXhN7YdPoKKJ99qO5qDxmlD1HFzu46QMqxSlby1hYx4YTF8lp47jJIlF6SeH++BgbxHPoVMCzD4rOcZY6zC+HW/D9pe//OWFljAe64MhYAi0LASMiLWs+2G9MQQSIvDMM88UoN7gZ2EO+iUckK/KlE74qoTxO0kSinqLenPLLbcIYeLG3zdv3uzgki8rIpXE+Rf0CIQQK1XQSDJ0tSOP79atm5s4caJch5sfSkw0ACVfftK/Hqe/adI7+8YE//vvv99hvG779u1CfnyCw89KOv22NZzalMdIsYwuSmC7XCn5zW9+U3LquC1evFhyw9g33XzlTPsUKnjVUAnvgRr5kdtuu61+2WhTOmfHGgKGwFmPgBGxs/4W2wBbOwLf//73p8Ld/uvIq7oGYxFbCiUPSsCUmOTn57vXvva1DuVx3OzZs+NDp+KEYtOSlE9FjOf5qxN9jDQPjG2RYPnkgudxNSRDkUzIJ0GK5kSdKN66IlPzxKiIkTiChAohmz9/vtu/f780z36Q7PgrOH1C1pTkfm3Lx4OrSd/3vve5j3/84xJ65TihaDncC+kTj/XP01BsqCLSP+zI1Vdf/cGHHnrIEvJP9IGw8wyBNoKAEbE2cqNtmK0TAUS03nvPPfd8EwWje6mC5RMO9eOiEkQ/qy9/+cuOK/qoWGmOEvOwGIpkgjwJAz2/SCxItBIpSEqsNETJ7zyOYTnmm6FotRARtqErIpsDXe2LKm8kOuwjr0UCtmzZMoe8OAebDodVokLElJSq/YWqWolyyvz8tmh/lVTxd46RPmCXXnqpkC3iBnsQhxWqMmZ/NaX2VckrTq8F9nM/9KEPvRdK2prmwMXaMAQMgbMbASNiZ/f9tdG1UgSwCm8EyMDXEKJ7EwhEjibfU6FSoqRhSA5xzpw57ktf+pKDE7yMmMeTSDHviqsiuVKRYUYlZ76aE4XIXxmp5IghyAkTJgjB8wmQ7m8uVUyJlY5NlSf1NaOyR1JGCwwQVFHJUKA8PgQ/Hy06rlREjMeixJB4g3FVJA1ciQNDkPwOr7Y46Yv2Ua0q8Hs5yNtnERK+/fLLLy9rpY+eddsQMAROMwJGxE4z4HY5QyAdAh/72Mdeg1DkrxBC7ItjszRPS1cp+knzJA9UwGBlIeaiumqPtgokYKqC+XlQvL6f3J+MsDA0SJWNqwRRf1GUNJ6nSfx+jllTQoHJxu8rYko41ZVelT8NW5JwUZ3iSsunn35alDKSs6bmiCkuXHRADN/61reK8ldSUuJ+9atfOZR/ilcYYB/UFd8Pi+JzHexBlrzzne98709+8pMl6e6v7TcEDAFDwEfAiJg9D4ZAC0EAvlodvvGNb3wFKwZvQ5fylVRpKEzDb0p6qFCxRNGNN94YL6PDffTlYiiSyhFJXFStSqdeqc0Ec6N4DTrx8zcSMw39+dYMSpJOFkYlRZorFjrQx9392b6/upMkTV9bt251qO8o3mR8MeE/E3LIazKnjvYeLF3Eje1wpSnNZ7lxzFoqSvukPm3YXYVVo7+DavYt2FvsPVkM7HxDwBBoewgYEWt799xG3AIRQBhy+g9/+MPfIZ9rMud+nywpAdNwIhUb1olkyIxKlW4M21EFo7s71SKSBeSWpUymjypcqvScc845btq0aUJ0NCFfk/bVY0wT+dX01CdppwNin6gyl4x9pakq1awnn3xScslWrVoVL6kU7RNd8aE+ug984AMSlqSf2p/+9CcpU7Rz5874goion1hIxmK45i4UWH8vXPUfPh3jtWsYAobA2YmAEbGz877aqFoRAm94wxveDUPTn6DLHVSNUiJGcqEhSb5zxSLVmze/+c1CHpSMoGi0u/vuu+Nlg0hMuDqSqpiG06KQaBI+CZw65Kv/F3PNLrvsMnkx5Mni1ry+EjU/1On3j+erCsc2dTXhqbgdUfsKDVvq73Trp7r11FNPSfiSBJUb+37xxReLDcUFF1wgv1FBZII+8850jPqu6p+OAd9rgMm9qBMJ4exzQWVv2wwBQ8AQOEEEjIidIHB2miFwsgj84Q9/mIDJn7YUN6CtHFVeVPnSEJ2G/q666iqHAtFu1qxZ8UuTRJFAoC3HckXNuVF5Y+4U61PSGJZhShI8hig1h0tDhbyu5nM1Zx/StaVEz7fZUNzYH13VSPNahhpZ43Ly5MlS9JyKGM/729/+5lCpQNQzkkj+5tti+Ca16E8Z8PgE7sMfkZhfl65/tt8QMAQMgXQIGBFLh5DtNwROAQJvx3bXXXf9ApN+J1W//NwoXf3H35irxRDa+9//fqkTqdtLL73k4LQvao+24Ser+75YifKlVE3TlYkapmT70RWGrFVJXzLmo/F9+PDhQlYY+lSyoyFLtusns58C+OJN6rj8kkpaF5IHkThy435+5upREkx+pgUGSSzuQ4MQrr/y0ssFq+3Zs+cL8Bb75Le+9S1LyD+VN9XaNgTaGAJGxNrYDbfhnlkE7rzzzuFwyP8qbCneggk/R20aVA3z855IZqhG0SEfdgjScc3Z4mo+kgjWZvSVNKo50VytZJYOuupRyZu+qxqkhEwVIS1rRCWJdSsZ3mMIU0sqKZHzzU3TLQw4mbuh4/YVLCVd6oHG7/xM8kWCpr5nLDbO0CRXXermm+Pqb2H4tgL5ct9HGPKXUAYDR9kWuIGYozhBARcdVLJ7sNzIgfonZmvwYMsCCe2EcG1X3Mds4FAdvrOO1CHkHJrdRgu8p9altoGAEbG2cZ9tlC0AARR8vvr3v//9LzAhDsUEnxUlX76aVVxc7GCHIN5gffr0iff+1VdflTAa88EYIlTVK5Hi5SttiYav50bNT/38NH/lItvw+wiFSKwtrrnmGoekdVldSQWJ+WTcNHyZrh8nc2uUuCqJiipxvDZtN7SA+dGjR8Wc9Xe/+50k5ytx0z74OOJzHe7DZniLvQ9J/E+fTD8zPRfqZifkqY3GKtChOCcfeOdjAUI3PCvZ6A/95HLwO6sr8J3//eZveRhXL+QE9oDSRxKWhfMY6sZbXS72ZwOfOqiXXdBWH3zPwvdq3J98HFMB8vYqMHnXu9/97kOZ9tOOMwQMAUPAEDAEWg0CSBbvjFWIv0SHq/GKQY1gCZwYJkN5B1mIv7gfeVkxEK0YCA3mzGDj53//+98xWCXEeExLenEMgwYNit16660xWEfEQCJiIAAxEMUYJv4YiGfs2LFjMZAF+a6/YSGB/H7o0CHZx3ce29QX8uTkXL6zbX1n2yBmgh/7M3fu3BiMbwVr4qe48zOImvym7/hchRWpd/z6178eeKoftIcffrgPSPoN48aNu7Njx45M/qdKVYMX1Sy+mIuW7NUcz0LlzTff/PpTPU5r3xAwBAwBQ8AQOO0IIPx1fr9+/eZh0q/hxE/SoiSM30nGlFSRBGAFZQwhpTgB44cdO3bEsEIvBnPV5ph0T1kbHA9CgDEUyI796Ec/iiHsF4PqIoSMREsJmb6TNJFA8R1qTpMJGImWkjm2r6QOSpcQVyVhlZWVMYSDY1hxGidgSoIVe94T/QxVaR+MXd+CFZdS1/NUbAgtj0ch8DdPmTLlz1CkGO4k8WrWe6Nj0ucuSkA9IlqLEPg3TsU4rU1DwBAwBAwBQ+CMIACX93yE6z4H9esYJ9ioAkYi4JMwhB9jP/vZz4SM6EYVB8WuY0iOj0/QVNP4au5J+2Tai070bIu/DR06NIacqhjy4mIwWBVyRMJFxUpVLxIoJWkkUPo5E1VMVTT/fLaNnDB5cYNlRQxGq3HMfAWS/VQ8w9+rEW6d9/Of/3zqqXhoQL6mvvGNb/zsqFGjHkPIcx+uQbXrlN1LJV56P/Tdv1/6DELRfBzF1budinFbm4aAIWAIGAKGwGlFAKVxpoGEPKoTra+C8TMnf18Nu/7662Nw0xflSFUclCiKQU2LYbViXMXxFY5TOYGfSNscE5QkGZevLrGtoqKiGAppx5DvJuMkySLJRM6SqGEkYCeiilFNYxt6PpUvKnDciOXtt98eA+mJ48e++OFgDRGH46248sorvwgC3Wxk5JVXXmn/i1/84sKrr77661BFX8G1S3EthhilT/pcKGFSkngi+Cc6xw+96n4lXr46xn1U5ZA3N+G0/qHYxQwBQ8AQMAQMgeZGAP5Ub0J4bqdOtL76oBOvEpXOnTsL2dq+fXuDUCRCYjGsSoyTBp9AkDz4SlpzTdon206icKuv+umYqfwh+T2GST8GB3whZCSfTVHCfLVM881IwJSEbd68OfbpT39aQrm+AhYliKGyWAt1aitMci9ujmcBqzG7oOzUZSib9HWYvi4ABly5UKf33id/UcxOl9KpfeE991Sz6k984hPXNAcG1oYhYAgYAoaAIXDaEXjggQf6wCrgD7iwJOTrpE8ywsmOapFPBJAbFMOk3YCAMXQHY1ZJfFdipBOlkppoXlk6AuWHp9IdezL7/QUH0ZBYVH3hdYgHVbIPfehDMRTsFkUMpZRiVLU0qZ+ES5P7ExE15oQxFEn1ixvDkUh8lxw1HYsSMV9t8skHbCl+jaoGg0/mgcE1233wgx+89txzz/1+7969F4XPQFz58p8HJT+J8rWi+IMgxpC8H0MFBSGV/Mx3/UwiD4+5WK9eveSFsGr8s35HfyREPHXq1NjMmTNjWIDQQI3zyF/tFVdc8eWTwcHONQQMgRNDwOwrTgw3O8sQiCMAs9XX/OUvf/kBSMMITLDyN6Wlifge/iR2DixLhJwlKVOECTLeBnzFHGpNii0FyEi8NJBvF+FDru77bBsko4GthP+dn6P2FGf61rHP4E3SDfaPHl/nnXeeWGCAzDisDBX8WDWAxymG6pHG8dCSQn+nNcWuXbvcL3/5S4ewcLy2ZCo/NJCYjcjX+iKI779OBI+///3vA+DbNQMrMa9BZYQrkfvWm7cdr/h/Uzk2HSvHwZd+j75rHxDClGoGrPMJQulopEs7EPU/0zb4XBA3EC6x5uC1fA85vR4x4D4a2BKz5557TuqU0lvN903j8bj2c3j+rsR1xYfMNkPAEDAEDAFDoEUjgEmtG2oxfgcToSTkq7qg4UiqPvxd1Q+40cdA2ET50Y1qzr/+9a8Y/LgaqDg8L90rqnap4pbsPV17p2u/r575KiFXjTKnC+pSDIW0JfeLmyb4Ux2jMkbl0Lf2QJ3IGLzM4tYTfm5UNByMMdaCAD+G+zCxqQ8Xkvgnv+td73o71Mw/gQSV4Hyqn6J8+cqbr14mygOL4kxVi6Forux89tlnRQXUxQYNJNOT+MLwL8PAqCYQGzt2bMJnDQrczv/+97+Dm4qLHW8IGAKGgCFgCJx2BGDPcD4c5udyIiaB8BPylQgoySBBQ5Hu2OLFiyWPSfOiOOGibJGElKBWxBhqYtiJIalOnTpJoj5f/D360n3MuaLvGMxUpQ1/kvfzo04Xycr0On5SP/vp+XfJGDh+htJgXhvbtGmTrLpkqJLJ+bqggWTsJz/5SYNQbqK8NO0T7sNxqGCfxn0oyPSBgY/YdChInweJfhT3ZQ/Oo81Eg7Cj3m/N/9J3zQGL5qaRoPft21fIIxcUQA1tsFr2RPgWyb2+iAs/8514cVGDhm/5O4yCG9h4KD4YRyVqaAZV0G0zBAyB04aAhSZPG9R2obMBAUziOVAuboO56vcwnnyts8hQk5YC0s8M9yBh2332s591UFIc3fL5G0Nr+/btczA/dcuXL5fv3MeQJNvjO8NOyAlKWkib1+J1eAyLgDPs9OSTTzqW7lmyZIkDcRG4tX8aCmxJ98APoXIs+tK+cozsP8ip1NREPlncIZ+hXFYYYJ1IVhjQMCXbUEd//Y0kBGR3NULIn0IiPVezJt1gF9IdocYhKA5+8fz5818Pn7IJuD9FOCHuKcZ+a4iQDUXDvzoOhgxBfORaWDnq4GMmhdOxOtPBWNaxMgHve3Rj/zk+GOOK+z9y4eQQXocbr01s+E58WD+TzxPDjVognm3wmvzOMlh8/l7/+sCzlSFwPpMJtjoovN/Ac/T1lvScWF8MgbMdgdyzfYA2PkOguRCAejEFRp9fX7NmzbWYZLM5yWkOEz+zzp9OhrwmJ1sSCNaL1FJBPJ5lijjRstzOyJEjhUTwfCVhzOfxS/VE84v0O5L6HRLeJU+IE+973/teB+XNwSJCXvfdd59DX5tr+M3ejmLHhv1cOB0ffyfBZKFxWEDESRhIsNSJXLlyZZygKHlTIsIdvBfYaFb6JzjX//i6665bm2gQjzzySE+QrgnI97r4He94x1XIN5uE47SUUIN8Pc3J07w7zc3SfCu/7zyG+W4kXghnuhkzZggZ45gSbXwmSM5JpPnauHGjjkFIarJcv2iOIJ8fPg9a1onEnv8gwEpOGQufOSiO8Vw69iXMZ8uG79ql+GpErNmfdmvQEEiOgCli9nQYAhkgAJLz7r/+9a8/xKTWWRPyeVo06ZoTMRUckiKoL65r167SOn+nasEi01QoSBJI3PwJXSdE7lNVRc/VyZbtUEWhsoJwmXym6qLH8zidgDds2OCQP+X+8Y9/sAB0XCXLYLin/BB/fKokKhnTsbKOJZUbkF8hq0zIhxrp/vjHP8brWWo72oYSMob3EM7dCWL1HShpf0DumbAy3aB49QUBuwjk61IoTzPh2zaGfCR8yWFRguMrdqqKRRdT8H6TGLMoOgu1M/me5EuT7fX6vMdQ2xzvEepLOqwcFWLJMSbb/Da00DlJF5P5+SzxvnOBgxIxnxRyMQSMdR3J++rVqwVTPhP+wgl+xmKSnVAZrwBpDViubYaAIXDKETAidsohtgu0ZgSQSD/sBz/4wVdAoN6GcYAPBOoVJy1/0/AUXPDd5z73OVmZpsdQkSD5IgljqElX0/nnazhTCQDfOZH6E364sk1UMIa1/IlW29LfOClzQuaET6KGJG2HBHhRyjgBc/L2iYWG2nR8en1/oo4SkxO9r6oq+QRMseJv7DuJAnGkosQNRqvyHcQpTpIUHyVDulKV0AGjp7/xjW98DveBdhJu2bJlBcBgGMY/G7U/X4f7MQWKJFc6knzJzVSslcxFybCqXlHyBYsIKX7Oe8+VjrCKEALO4/2N7RJ3ho1Jup544gkHJc4hj0tC0dzPcGKUHJF08V5yBSWvTdJFAk6Vi88TKjLEV6FG74nes+7duzs8y6LSsg9UTu+///5Gq3NxfDXUw5u+//3v33ui99fOMwQMgaYhYKHJpuFlR7chBGAxcQXUlJ9AuRiDSTXLzwFTqwAlPpzwaEvx7W9/2w0ePDg+MSJRWkKRVCE4AXJCjZI4QqqTr+YBaWiS1+F1OUHT1gAr3mQSDsNuje6Gfz4JGL/zXJI3JL87JL4LqcHqPMkn40Su11fypQRHySGVmGQ2GifyOGiOkz9mVQa7devmvvzlL0tOE5VFLGhwMH8VWwoYwMYtF6JkhW0SK+TMsYD1Hz71qU99Y9iwYfv+9Kc/XfL888+fD4VyGvLxLsA96ETO5ZNQvy2OR20vPHVN7ifb1402JBdffLGoXiRhVChJdvx7q+SWOWxUuqC6OdQNdTt37pT20D95VkisouTPf654Pr9D4RMCTuLHF7H66Ec/mpSE+X3hfSZ+3Hg/oRDGiacSzPB+50KlG30i99XOMQQMgRNDwBSxE8PNzjqLEYA/VA7K8XwLtfc+hWHmqVKiRCWqnHBCZS4Y6irKpMqNxILJ1osWLZLJl+cwN0jzyqLwkej4vlc8XskW7A1koqfvGCdkTsxKuKLt+GqTXksVOH2n4kRSyLAYwnOSlwTFKJ4U7odbfZLI83jt5tj8hHddeABDUfe1r31NlCVu7BPug0MYUUiQ4uMnx5NUaHI+VrG6W2+99SG8P4VQ3zCoTTOgfI3GWDugOYko+4THH4fiqX2Jqo0ksyRazPViP+l3BnNUIcXRe0FsiRNzAIkxiRdDhlS+eKwqd/zM/vO73lNeXxUwVcgY3uS9Z14Xny+SefaHCz2ovFJtTbb5Y/7kJz8poV2eD1VQcsbYL58Q8/p41v6Ltm9sjvtsbRgChkB6BIyIpcfIjmhDCPz0pz+dhde3MbnNwQQlygknTCUCJDckJLoqDavMHEJgojipAsKJmInXnCg5GZOAJQojRokA29Q8IE7MnDA52VNx4STMiZyTtm/EmejWaD981cdfZaekT8kQV+XR6JPJ/Qxbrlq1SppVRcXPT2uORyEaEmVOFXPqqO5Q8SF+f/7znx0sQiRhXVc/aiK+9l9VSfaJWMHCQ4gulKdqEAyq/fH/vvnX9Mem4/HDm37eHu8riTbJIfKm5Bq8n1FVk32h6sQVjFS/SMKp5rEtDbfyWn4umxJKjo/ha76TYFFtIw6wuJAXnzd97tiGqqWw7pBFC8nUUe2jks/p06cLqaWSRnWMiweo0kU3KG+boCRe+IY3vGFHc9xva8MQMARSI2ChSXtCDIEQAeTNfPgLX/jCV0EEeqjtg6/caG4YJz6SB4S/hEAwZKQkCnUjHSwuZCLmxKoJ+X5uWaLQJCdLVUpIwtg+w5Ca6O2vgkuUo6Y3Ua+jyo6SDv2d7WjoUUkC85N0ZSJzl5jgj7I9Er5keFOJSTSEd6IPjk9KSQ6oelHZ4UbiRXIBY1EhnrwPSiR0LNoPkhZixbHynXlwoeqXx2NVAfSx4O96fZ/g+WNh2I4rHeluz3Au74EqnXq+EjcqSqhtKeSLyfckY/osqP2GEjD221fw+DufJf5GNY/KF3PLmAvGsKyep8RLV+SyLyR5UG6TkjDtp+LAvjAszfw0EjESe66eJBGLhlNBJvvDwqMfzjUidqIPuZ1nCDQBASNiTQDLDj07EYDL+vhvfvOb3/vnP/95NedvTkxKPjS8p5MV32lHwVAkc4R040THUBpJDJzgRcXw83yUPPlhLJ9g+LYLJAIkASR4bFcVj2jIMNHd4LEa/vInYyUOmu/Fa2uf+JnKHVUlXpcvrvqDlYFDDU3JJeOETdLhb1FiloqoRfeR/MFY1H3+858XEkLyQvJHXKnK6eaHcpXE+IsQ9DhVAX3S4/dVxx8N3fIYkh/2gSFH5nxRhSQp4nWiG/tDHBhuJGkk+SJZpaLFe67qp6+ksg1VOjU8yWMZ6oQhr6heVMEY5gzztOQe+v5o+jyyHRJQJvpTxZRNlxv4dr74uYEKiOf2eHmZm7dgviyAING7+JI5ki/IalNce5KdxYbwXMTqcjE2rpKYf3b+xduoDIGWhYARsZZ1P6w3pxmBT3/60zehpM7PMUH20onLD+n4K/s4WX7kIx+REBonT538qTJQBWM+kB+G8tvRz5r/oyRIw2s8j8SLJIwvDVdpnxSWRGqaD5kSPZ/k+ecqIVFVTMmahl8134okgblptD2A+7+D0akoZFx1qWaxSq40dOmTHL9d3a+/cXxQHt1b3vIWITu7d+92CAe73/zmN0II/c0fhybL+3lq0fH641IlyW9DyTFVIRRpF8WLhHrixImSAJ9oO3DgQHyxBce+bds2IY7aH94rEmASNOKrYWC25RMrHsMFFwxzElsSQBIrjkHDlEq4/BCmtiOcC8cSIxIxkjoEz1FfKajbKYFY9fyXY/lDWIcUn6ura9z8BQvdrbe8Q/o1HaFJNOBysnOCPuNctCYtLV66+OKNWzb9fdjgobWn+U/SLmcItDkELEeszd1yGzARQLJyH5Rz+QqIxbvxNc9fOaaTpx9C46TNQt0MoalSwv3q1UUyQZVHJ+Jk6pAmnOtEy+NILKjA8BpKBvzk9ESk6lTfRb0m+0v1hv0k0aDiR88rhg45dl+t8wmDhlqVcGp4kAniXBXJpHdubIsJ+iR5yQxLU43VN1LV6/vX1nNJYHjfaN/AsCNVITXDjbbPfpDszJs3T6oVcMxccMHcNb1v/sIKns/fmWunRNbP09NFDtwH9VUWdQiJCi1QfHLsYxjtF4+jGkalkga3DIeyiZywgDoZE3mYbNI2XviBShdKz0PpqnaXXjjHPfrk4y47L9etWLnCXX7FlW4v1M5YHQgYmBjKlDvYFLsOnTtsfeTxx847f+a5Fp481X9s1n6bR8AUsTb/CLQ9AJBcfx3ywX4Ag9XRmCSzNFfKT9jWz5z46GlF8kAzTN0YimIokjlVPJ9qlhI3DUMlIlD8jRMzzycBYyiLJYrUcV3VHl9FOlN3SPugNhjs6yWXXCIrBrE6UYjK3XffLWogiYqSD1/d0bw3Ek2ojxKOJFZMaqcCxoR8hvd8EpXpeH3CHCVkGuql1xZJFwk01S/aRajJrn8dEkomsDPPjOofVsxKTlVUocskT85XLfmZ95r9YT/OOeeceN5dVM2LKopRHPR+MCTJ0KiopeBPuYGIJYJYjWpa8hNKMZGJCcEixcpyO5C7uAFWKiMnTnADoOrOnD4NfmIPCG/jfuhi0k7pseO9ly1ZOgIfjYhl+kDacYbACSJgROwEgbPTWh8CIA7tv/Od73wGQtgX0Xt59pWE8XN0dSDJEXOY3va2t4napcczr0YnQ034VhJCAkfi4ntO+UipksJka07yVGV0VSTPia6Oi4YmTxfqiYgg+6aLBhiapbp1/fXXywpRWmAQk1deeUWUIz2fxzP3iqFIhjlJQmls+73vfc/de++98dqIfjgv0zEq4fGMXOW6XORAuw+uCuSqVuZ8JSsrRCLNckIklXS4pxUE+6+bmrJqmJO/814rUdfnRhcV6O86Hj937YYbbpBFGJpPps+InzfotxvFgdfgM8MST7KFdhwwM+HTKwSK1It5XlkxkjTSMOR84YUlDXLKll075B6RiHXo0NGNHjXC3S9NCRMTMsYQZV1tLP/F516YjF3PZno/7DhDwBA4MQSMiJ0YbnZWK0MA6sss5CT9ECvczsPEl62Tt4bMdHWkTrTXXnutA2ETFUU3kqdvfetbUjKIoUh1QVfTVVWCkpEwHzJdlUnywiR1koY3vvGN7sILLxTSoKvp+H6mQpO66pCTtBJW9pt9Im5aE5NhRq5+pNpFp3h6VGHhg/T7tttuk2LdJG7c7rjjDgfXdgmvBVyicbHvTB8tJS0kd1S6Lr30Usn3IgkjiU5UUJuKI9U79pHEiySMypcqkUru/ER3vY6GWfUYYqELCHQ1qt6rKIGmHQXDiVzxSKKu91eP99+T5QHyWiSxJI+ingEokizEHvGJyhd+YzUG4hrsEXJGjhVjLhney6oq3bpNGwTibLQ3GmWyChCmrET+mBwXRjTJ5dauWjs103thxxkChsCJI2BE7MSxszNbCQK33HLLh5GQ/2N0N99PjPbVCs1P4oT5sY99TJLy4dIuI+RxVEy4oo9J0kogmOcT3dIl03M/J2N1S+d3WAXIiz5eJBB06OekzVAok8o5cfN4v22/79rHRPs1fJeuX4lupa9S6UpMzV3zva/UQoJkC95Tkof1gQ98QKwcqIKRWJLskIAxR4qKkGKoxM4nPpmE/xjeJFYkgbwmk+2pNmmdTX887IeWmPrf//4n5IsrW/nSfig+iqufH6iKlfZLazmqgukTZT+86P9Ogs0cQOaRqcrm54bp9f1/EPg4aOiVq1i1GgI1riwogBJ+FMoVfKIKxvx9JusH48FevDOVjPvXIrfv2NFjUMTao09T3aABA0HONrnsHIQmhc8xX8y5Pbt2j122cGnxpOmTGz/oreRv37ppCLQGBIyItYa7ZH08IQRQ5HjUD3/4w2+gWPeNVMF0QvWtDPywFnOfmDhOCwPdmKAOc0vJZdISMf4qQSVBeryviPgTsRJAXptEJKqE8Hw1gl2zZo3UD7zqqqviKg9JGQmPkhg/jKpkhiTE/923PEgV8koGblTV0SR4P5FfCQuvrdYMJLCajM+2aSJKdZFJ78RbyQbP9dXDaM5UFFu2yzqOVClJbJhbx9/8xRM6FuadMQRH0sWFAHxnXlqiBQFRxdEfn6qcbFeNfEmMo/dbCZ322SfKVE6p1lGh4z3W8HNUYfPH62PPe8d7zOcC5ZriKqJck7IXyRNJmKpZkMTqwL7qKG9RIcP+XBA15pKV4bjFK1a51fA+mzlpohs6bDisO/oJERMFDecyNMntwMEDw6AcMk9s2Qn9AdpJhoAhkBECRsQygskOam0IQNV6E1SwHyKnZoAqC6rwqA8Vx0QiwPyv97znPe6zn/1sPITGfVSpmKTPXCZfxUk0CUfxiZIw7vfzhhLhqedwgiaR+Pvf/y75QEzypncZCzVT+VHiRZKgpE5JAttQ9co3d22u++crRUo+NCGdSh+vrean9B778Y9/LESWFhA8Tq0elGhoaNi/R9pXHst7wzEzv4rEi9YXVL4UTyVv6jfGhQMM35E0M/zJpHYSWJ5HFU0Vsyhh5bVIsJjIz5Wr9BVjUWwqodpHYu0rd6nuoZ9jxwUDzKXTQutKRJOplIqFkjlV2Rj2JRnzf6/Ds1JAo1ioXxW0oKCYheWTdcLQGKREnVAwq2o+6/xWUOz2lqEIPFZcTgURK27f0Q0dPMw9/fwLzAuTU7JyobJVIdexurLj8hXLhxkRa66/HmvHEEiMgBExezLOKgQweXZGPb2vQ1H6ECbXXJ04OflpWE3zgTihMVzERHLmZ+nESGWHISD+Ttd0JRw6gTZFXfJVnnS5XkpUtJ+8Lid/GpzyxbI/zCWj/xa9qJiETrWFqp3vmUVSoWPUPK7mvsm+8scxMvxIkqNEh2oUV0nSd8wnW8yN8tWeqErJ7ywpROLEJH+u0iQpohN8dGM7zNtjYXUSLlYzIOEjHlTKiJHab/BczXlTQsy+cD8xIknjNag8sq4j26SS59tzpLvvUcVQnxeqYQzbsq/ER/PK9LmKjkvx0neewyT9u+66q0G+oFhpoP+1wr74Yt5YNrLDmDbGQu34QImruJ3r0q2La4cw99gZ011R944up2s3xwBxcUGeu+DCi92dd/3dVUjVBSpiCGcyrAlJDZiOx2H/a+7nx9ozBAyBegSMiNnTcFYhgNV4r5k7d+4HScL8CU/9nTQ0ReLw+te/XhQvmmwqsWAu0Q9+8ANRo/x8Hu7Xc301Jx14iUKQic7Rvvqr7lQJ4TuvzdAafa1orcD8KPphXXPNNe6CCy4QIsGJXkmYhgBPxJsr1ZiiuVRKHrX+IlWf3/72t451EKlKqTqnCpGQB5CtaL+YbM/cMib9k0CRiOlKVb8/xFPrOZJ0MfGeJqvaHtum8a7v1+Yrg/79p6mqvmhgy9JCVMWo6DEESAVKx6ukiH1JRai5z18Awr68/e1vl3Y1r47Ez88FS0Qw9RnjO4kYlTmS2vjvAYsLfOvAtaoZhoQxa5AuBjqWU+B6jhjuukDdK+rbx/UZNdLF8vNcdW21K8uudutAXA/X1Lqi3Bz8Y2SK61DY3pUfOxwk7DOfLOhU1qYtmy5AeLIbyOSBdM+67TcEDIETQ8CI2InhZme1UARgqbAQuUilUDI6+3k6ukqRExkn/Q9/+MOSUO5P9iQ4DE8ytMXNT6r2VRx+TqeO+OGlTKDSfCGfQGgYkJO2Kk1ab5BmqnwhD05UPea1USljWI1jIvHUUJiPQyZ9SXWMnz9FTFVR4jn04OKCBpq9qvLF31WB8lcfkuyQBFH14sIEEq/hWMFHhS+6ERstK0RXe4Y8SZJJboizrl5VVZDvuiqRbVFVZF95TRIjLaZN8spz/Zw/XdXIZ4HXSEWYEhEoVcU4VvZj9uxZUtNRLSt4TiBg1TUqHO63p+1o2DfAtCp+SJ0k34d0SSQwjK+owBVA6RqLBRIFXbq7OqiCHXr3dWVQuA7w0Nx8V1MNI9mycrcRockyKmAgYr169HLdu/ZwB0DEYrTEkLBmsO3YtXMmisAPxEcjYif7x2PnGwJJEDAiZo/GWYUAiNRKWBj8Fgnan1cS4CtjVCNYToc5R0oMqKjQXPTnP/95fEWaTyD85PJgIg0mKl8dSgSikrFMAFaypMnr2ra2oSEyva4eTxWMyehUcH75y1+KQsaxMamdKy5JLEhiVFVT3zMlR6pORZ3ifeyUJOrYNdzHd2JLkvGf//xHrD2Yw+T3Xc9hf1nfkPluTOQnAVMlL9FKR5IsEiGSLpIvushzlWM0eZ7XYhhWSaFPkPk7iRbrOZL0MVeL4Uceq7VAFQfFh+/MLaMvmmLAd/8Z4H80gzWKgQClbvZZIDWxOthGhKpSDhSoG9/8Jte+U0dXXQFTVxAf+nRlhSSMIUA5VlzwobiSADHRHvtjdTXI7sL/cvLc9m07oII+i+c1hr4XuZpaZHtJVn2N69Srnyvo3sN16NfHjQauseJCl4VFAZW4N+W41u6aKrSbExi94vo52XkuJ7fY7T5W5vaVVrghhSDEfXq42RfMdqu2rnc5IHVCTKXmitQ5bV+ybRu9R5Zk8hzbMYaAIdB0BIyINR0zO6OFIwAD1j9BFbsFilBfEgCSGE68fOeLFhQkLJxwVsNlHAW/3UMPPSTfOVFrKRs/eT7RkKMhKj/5Ol0+WLr20oW/lOBoOyQUJCtMjKeHF41i6YXG/CQqZhoS5DsJCgmpkhbN01KzViVeqiL6ZE1JjIYcmUPHUC691bQouPad7ZMIMdTIkCNXpdLOggnxqjb6OPD6DDdu375dxoLKB/H8Nx6n4Vbtr6qUukBBjVipepGEkoAx5MjPfhF2thX1elMFim2T1JL8+URasSI/QQBQ0uCVgMk7qwmBhNHTS8c/euwYLDCY7apZlxLkCdXkA1sJmnSBVKG4NoQsfMM5NQxpZrHYI84HGxLMqxE6LCx2Dzz4AOw/NmJfHtqBsNWxuxuBBQxF7dq7ToOHOMSpXRVI4GHSuTCMXVvD8CI92qBaMhxMIkYCiPBlLKudO1pV4dZv2+pmdpuIckfZbsZ5M93tf/+by5HYJHIMQQpDQ4ws+JZNQtMPtfA/e+ueIdBqETAi1mpvnXU8GQLvfe97N4CA/A65LV/FZMo5UyZencAZ5lHzVHoyUVFSN3hN6PaJUFOUrTN9V9hXLjZgPhFfv/vd79y0adPEm4wrL5nErgn+PtHieElWlLBpWFTHrgRMVTAeRyNaqmDIyYsPm/tJZuluT7JLmwmG5qhIRTcNOTIRnflkfDH/iyof2+c1ldzyvpBAcmw8xs814zWplrF8EAkoQ460iiAhU6NVDT8mIrh+GJlK3L/+9a+kt5EqGFcgcgusU4NP4maPVYfkUkrUrj53jpswfLQrLTvqIErFFTQN/bECJH+sq4L6hfEV5RW46iq0DsJFL7C8gkJ3YN9x98wL89Bovus6cZQbg5JEWRhXe3qmtW/nykDMSmO5onhxBaXEPWULjHKD8Qblj2QDAczOgYpZUeXWYFVwbMpE6de48WOBWYGrKasU64tgFAHFxD9WLsLiix9i1aoOPSk+tsMQMASajoARsaZjZme0AgSQ//VbEJEPgmD19kNlqhwxFEmVRkkKw5WJNl/lagXDbhC6Y9+p7PBFxY+rEUnISI44doYtNedMva1IXEjUNOmceJHoqCUFyRFVK/qc/eIXvxDSxI1t88VVjsz54mICtqN1NxU7tsvVjVQi6W7PygLqrUUFjIRK1Su/rJD2g++62lFJM99B9KqghP4GBPBi7O+F6/TEsRCh6i0zhFUIyWi8KcFkSJI1RFORb+hKgV09N81qxzvVJBbXZmixS6eu7rU3XO9iIHb5OKwGJI1J9Qz5kd5Qb6pCzlcx7CSykN9F9SsbEcfsrEJXl4dcLhxxpLzMPTV/mYv1GuCu+/Tn3XEoZwVY/XiMRclzst3xapAmNFYoYcrAM0zHGO2/ElCqYjyMZOwACPBxNNARp/brPwAVCca7+a8sCulloM5lo10siJgOkszw5NbW8DdgfTQEWhsCRsRa2x2z/maEABSvvSj0/AO41f8fJiFUcwkedc31YWHnF198UXKVWJqHdhUbN25MmUCd0YXP8EHR1YickDlmEiz6otGwluE6qkfXXXedjJ+5U+qOT8KlieVsi99JqJQUUT2kCkYSReXr5ptvltAjPb6Y/5VopSMh0bJCL730klu+fLmQnWhlAl3dqIap6iav+XAagmR70VWwyIt7CKWNfoi+/xFEbBLGfB3On4bjBuO8vFSF2H11jd5h7FdKAq7J7CA0gYdqEMZjAj2d7unXNWLSeDd9zgXuOEKAefg9B0oUSRtVNB4dA3nKKyp0pYg1Mte+CC73PO/Q8Qq3ZtNmtwmrGtdtLnF7Dx902QMHu+P5uQg/5rqD5dWuAmQqF/clllXgcvMQaqwWatggjy3RKs8AR/RPfC2QfX/0uNu0a4+bivyyvn36ulEjR8EEd5Gkn2XBZV/GVoui5VVVneDPNsCI2Bn+47bLn7UIGBE7a2+tDQyGrr9Dge53Q7UZ5xMUEhOGJFlu5/zzz5dwFpUi+I81sCbwJ+PWEp5MtLDAX61IQkKzWBJPklFadzB3iysuWXycIT2OlUSHoT1O3iRmVKpobPvrX/9afLbuvvtuN27cuKQ1HalysR4niRtz8ki8mE/mF9TWJ1TJIt/V90wNWnmMVgzQlZg6HlV50OdDWKDxd4Qkd5DzIdS5Bsc8iTYuBxm7Cb+dj2O7JPuL0OvSq43hXL9fSXP1wjJAPDYITDKHLRv2ELUIGRa6m259myvNrXWVDPmC0uRBzcqGJJZVl+PyMM6s7HyEOKGE5Va5A8hbXLF+rVu8fo3bdfiI23ek3B1HiJC1ILPg81WB8/i5QnIdC1w+SR1YW1GMrmGsKhnUkdQtGlb2x83MMfYzqzbH7T54yK3estVNBhErLGjnxoCIUeirYa4bxwf5Lmw2G/YZ56KdF+2/KoaAIdD8CBgRa35MrcUWggBKBJXBjf5HSF7/A+dJJVacqEhIuNKPBIyrDG+99VYxzCRZUGLgl6BJZ1fRQobcwFajPhxFJSTIGfL9tkiwSJD4om8aCRkT/N/61reKpxbJGIkRFSIWmqbaxfwpKmi60tFPeudxJDOwOxCvM6pmDDf62PlWEap0EbuoR5u/ClKtIFTliZIjEOnHcK/v0XuAPDiKS3tAwP+Jc0rw+QCuey3ee/gkRY/X3EGGSekjx81fndno3jI1LKisLS72ohyJJBYoU/2wSOCKOZdhUEiSh/iUzeAkksRqkVCfVZDrDkPB2rp3n9u6b69bg7y4jXuwMKH0uDsOvOuwSjKGfDBXVCykjoatdUjoFxULOXyVNQgVgyCR3GVz1SV/z21op6Lj8XGKPwt030cfc9lWecztLy3H6krn2uM1ecJEqKVd3L79hwKFTZeGovf4u7gAP/2gpTzn1g9D4GxCwIjY2XQ3bSyNEHjXu971H6gyH4I6M11JgBIDvtN8lEaizGlioW/6iJEU+Enr/uq8VBBHE/z12FQrIE/HLdM8KSU7auehyfp8p1WEGsXq6kSSMPadKhmVQ27RkB3bXLRokYR5GXakBxtd7jXnzD8nmSeXWmeo6qjXoAKmxMnHMqJUVsND7QG479ebX4UHQyEjIXsOyf1VaIcGZVfivYG/nJIu2mRQIWS//VWZ/v2J30dPfWIYj+WFsAQynif/ptfe6Pr36OPgHIHfsWoRdhGoJ+C27Nvvlu/Y7NYf2OfW7NyOMGO5q0EDtVS8QNZycwvwr4UcMWcF30K7UMyYW0bqFCbe5+BawvlUh2POmRaHDDvrY+aTce4Oc/eDc5AntuXAYZQ8qnTtkag/evRY16tnb5DnQ/FhZ7N/OBaVBsai3NZIhPzXnY5n1q5hCLQlBIyItaW73QbHihyoY1hF+aM//OEPf8eklKN5Rqp40KqAeUFI9BZljKoYyYQ/gbUWNSzZ7eVYNNmdnzXfSz20SHgYomRolisdtYh2MHHXq2n8zvwthjZJXJB/JyFOrnZkAn90873PuE+JoO9lpkTNxztRnlsidYfnQrkrATm49xvf+EaqpxvLDt1AtDEY71Nx7/N0bHp9qoJ8Frhprpo/fv/6+SAndWRKLClEIhRaRVAP6wxj1Muvud5lFxe50iPH3b6jx9xzG5e5DcBrN3A7UlrmKrkAohB5d3WwEGFwkb5dUL2YKyYCFzCn2hWsB0DgkUn+VL/CEcpaTUYOhaDxHjVcgNCYfAVn1v8ON36eByK2umSr24Uw/dDiPjADht1Hr+7OrcQ+Kmc4KDC+yOZK1QGoNEBjVyNiqZ4022cInAACRsROADQ7pXUhgILe/wbZ+iTIwwwtjq12Fsx9Yg1HJq3T2f3d7363hNc0R8kPZ7auUdf3VhUxHbOSURIlkq7Xve517tvf/raseuS4GbLk7344k4n+NL5dsWKFrMDkO0ORJLQ8loW41TdMVz2q/QTzwpj0z9/p6UV81RVfiaGfXJ4M5wT3Igabkr8gSb8s1b3BooIYiMTTOGY82uiA11hVPNkmFyqQVCpx1IUA2qaS0XgotZp5XwgZgqKAg7laEBq4tZLBualXXevKQMbufnmRW/rqCqhepW4nQodHgCvy34MkezCuGi6h5EIKrrKUlZZM+wJh5qpGql7Cnaiy4TN25pBsaV6aro4MO0gC5/c1FRbi6i+Ujn5lWDmJ5/8oioBzK4Qv2YxzZrhnX3hBlnZmQ50LLsWVlrFchCdH48uTrfXvwPptCLRUBBKv5W6pvbV+GQIniMDHP/7xa2G5cA8m3jyd9HVi5/vvf/97hzCmhNVITFhn0A+lNTW86IfPmnruCQ4x5Wma96YHkXCxmPbnP/95qYVIfzFVyDSXjISEqx25mnTJkiXi30XSwv2sLRknJmhUiSt/J+liW1q8nL5ezCtjaSlaV/B69A7j5pOraGhSqEgCSwb9Ddc5hNy286GIrcoEM+SMTcM9vQl9uw5tjCUx5DWZF0YizrFq+FrDk/qs+Dlj4o6PRHvoWpJIlYeyUqOmTHaFPbq7fqNGu/wOndzhygoYuYLFwF2/nHZhzPWSHDKslgQBCnLroHxR2aLaJeIWnfazXLUkZ5H/BPtFHeN+LwQZLBAgqyKRq1fLFIdkqhhXdgbuG8gXhHt/XnWF++jFl7t3njvdIT3N3f/Efe7GN97kqo9WgWzCz4xqqlyhjqtjf42k/Q9ngrUdYwgYApkjYIpY5ljZka0YAfiEPYTw2yMowXNDNGGcEyTLA3EyJjm57bbb3Pve9764jUFLIFLNBb2SJzruf/3rXxene5nzQ+JEokUyqjUdkRsk+0iwmKxP7NRWQvPAlMBpfhWPoXs+azqy9iUT//V8LgogCYtaU/ikK1O8Z86ceXemJCwkfUtAQMB1ssiCSPLGkpA8+uijssIzm0pU6A9GchQsGQxIUTxcSi+v7r1dLksDjR7jxkyd4mph71GA8dYUFLnjkKcOl1ci9IjVp0i6r0PCPuQ/V8RcK7RVhRWJlbHqIDQYevNngW3RrytbSGfwWShbnISFChlWSYoPGUOVvGdhsFKJWjoSJvc+PEjcNJCDBnHPrVi9xlVOm+SKQUxHjBzhCjsVueojVfXt0+UfzwBKP1364IMPdoftyf7meh6tHUPAEIBSbiAYAm0FAUzav0AI7koQhwJVXzRMx5V+//vf/4SEwX/M/fGPfxTrBX8FZWvCKRrGU5WLDvcf+tCHZJwkSxw/c7744opRhh9ZqoiETA1Tea6WROLx6lZPPHgcfyNJo6rGskIkX1TBqDjRg4zHkHhRWWMIUIlfNP/MJ2M+1rJAkSQCBAWVHGUlIYxJq+dcdukjsCfJ+LYgRFl39MiR5dSnIEyVxXKy3n7g8MFRjz3+cLC4QOoWMTcL7YstRFDIiPwop2sX12foIJeH0OrgydNde4wxC4scaql04ajDOK8GDvlMvs8uyEd9R5qsYg+IV1E+HOth3lpHwsX8spAQUR0LKFWQgE88hISyDf7mLT8g6YrzwjBsWU8T6yFIR2KlDbAvuGi4GihgjHhug1cZahW4YrTbq3NvN2bwSDd/2wLxEqsBkVQlDoriYCiavdGCEbGMnzo70BBIj4ARsfQY2RFnCQKoKfkknNcfBOl6Q3T1H/Oibr/9dgcbBCnJg7wyhzBMPBSnKlqmUPgT4ukMUzIvi9eOLjDgd5qufv/73xcVjGFGhl9JwGgxQYd8JaV8Zzu6qlIJl37X9v2ajsz9IrEjIeO19PpqzkpSxlWZ0RqOglMYfkxELPhb4BbBwF244fi+/fsvv+zKyxd846tfy/SWyHEdO3WqPnRw/4bsvNy67Jys5QsXL/jqK/MXTOU+ilcMw8nVUGYoCw73/caNdwPGjHZ5vXq4zoMGIgkfJqyQpI7RmBVEK0iiV22LifYhoRJ71uAzimvRPCUwcmUifgOSRWIW6G6SuUWbEf5QP1qQpeAa8Zx8aSMgp/WQRBPyg0UW0RAl7TSymKNGksXlAbDUOASyuH7fYde7fS/XpUMXd9nsOW7+8wvQL9pnoH9YuRmOJRd/O/3weUWTQLeDDQFDICUCRsTsAWlTCHAF5ac+9anrqIpx4JysNA/o1VdfFaPSL33pSxKmvPLKK0XBSacytCQAta8a+mPfSI7gp+Y+/OEPy1i40pEhRy5UYIK6hhuVOBATEicNNapSw3e66fPVr18/eVHx0lwrHq9KmrZFbHl9Km1M8ifhbepGF3oqTULukF8VQ0Xr6bNmP3Dh7PN2NbUtHp+blXs4K5azu7q8+tATDz+ZfeQQ8tW4chHEqz2qDuRDzRt3/oWuU+9eLhdjzSlu7ypBRipBl6qrQKygbAX1IoP8rHoaVd8bVbj03e9nfJ8QpfBsIVUBcYom7qZ7/pLlgyU8LySCQRoaMt2g6B05VuqWoeTUeUN6OdpjTJ8xQ7orK22xmtPbaOwKgzT32IngbucYAoZAYgSMiNmT0aYQ+MQnPjEXdRb/DYuKm1XlUh8rTjx33nmne8Mb3iBFq2+55RZRcZjTlMwDq6WB56905Hi4EpKLD2jWSqJJoqSrIhluZO6Wbv6ETsWMuPBYhhqZ78XSSHynr5iWDFLTWw0zajhTk/fVCoK1JakwyvTvKTWZ4FcbqmZUZ4Su5OSVv/6G1zxy37//ncnpjY6phn1FQVHx0Q1r1ox78LEnunUeONR1HzTItcfYhk6f6mqR/xXD6ziIJfOoUFAoWM0IMpZL5wtU9s6UHPkXj54TJVDRjia6RjLSlQoI/5yA7wXLDWjBQW2NxrElyJGj7RnN1lh3shtqWh44cAiLQaHnkaQGZZGyEJq8FAs3ukyZMuXQCYFvJxkChkAjBIyI2UPR5hCAZ9hvYUJ6EyaofD9XjJ+RkOz+9re/ST1FFq+eM2eOqGKtxUvMN6JlqJCvTZs2SZ1Jql8MFTIHjMeRiKkzfn2SehBWJGHjC9YQ7gc/+IG0o6FJTezXvDG2IeoJiBs33xpCk9xplkpVTJW6ZMu1vbSo+HOpfWMSe01dtRs1fPQL73j7za+cyIO7vbSia2Vhfs6+svK+i0tK3j7k3PP7th801HVGPceK2mpXhpWEZSBdOSBc5Uglq2aYEK98JN4zj7+8CjYUUMSQ89+IjCUiVsFvjUOEifqeipj5pCz5dXyvsMShSSp5sgaSSlwYE82CynjoeCnc/avcgHb5bghKWE2cOAn/CAlyJJVk8x0q6gCEJweh/0bETuQBtHMMgQQIGBGzx6LNIQBV7CXUJvwlkvE/gYkGqTbB9K8WBUzUZ+3FiRMnyupJ1h9kHlVr2DR/i32lqsUC2zSo1UUHfkmiTMbDagMDBw4U530lVbSnYDskaloYXCdsXUGp4V6SN2LHOpXchIhBgYluiQiYHkMCxBypWpAw8rxb3vKW333xm1/NpPvxY9YfLet+tKJswNJdu6YtWrv25h379w0/Ulbar/s5sxGSLHb7YDVRx1qQOUUuB8liNeW1UL9YF5KKGPYh5Ys5WiwNhHUCICdBDliqLR2xSpTDdapDk7I0AIlidVh+mYNwr1QFwOKE7Qf2u5Wbtri+E0a6bj17SP3VgIgF9hq6wROuK0pBjcL3penGb/sNAUMgMwQaJABkdoodZQi0fgRg3PpH5Dcd5Ej82nz8TJd4OPGLgoTyOe61r32tDFgVH33XMGBLQ0NJEPtFBUwJgRq6KinjOKhqkSwxz0sd77mfn2nlwfEzPKl5ZNynBEzPZ/vEStvXdvg722YNR/qHsQ2eG1rGJ4eN3EAIQnCI+Fjl4IXvWBSw8eJLL16YCebbS2uyluw8MPjeZatvvPfFl3/02/sfvPMvjz/1q3mbt120sbSi3y6oXvty8aKJLa5XJ4W1YauKCyGPzCGdX0iZvGiqykUIqFsUY1HsyJYs7Jiqn5morNFj9DqZnKvXbnBOmNLGRP9cELEs2mrgdRDmvDsPHRB3f25jsEChAKs/ScL0eQmVyWyEuGdlgr8dYwgYApkhYIpYZjjZUWcZAjAVXQ0vrTtQmPpTmKhQZQbqACZitWNgYvk73/lON23aNEl0Z4I7y/poPllTVlH6k/SpXkGZbKLm75q/5ee7aZjRt7tQZfDGG1EzEWRMjVnVhkIJqD8un3z5fmI857///a8QNf8afmhS9Zb4flHAsFGOkQO5FFHeYldcedmfz734IhbyTrot2bWvz8qSnXP+8sSTM/ccOjhx75Fjw8pd3cAaFroGwazJzXfVYpwaVO7ORs4XY3VidopVhOF6x2BVIpPn2Q18pM8XVzzSQiO+rjFUU1PnbgWjTRVS9AeTqq1oiNIPG/rXSHa9OnGGDVaG0qeMLv8x5N5V4bXz0DFUAIi5nlhROXbMONcdK2F37NwVD0/qtbdv3y6rTG0zBAyB5kHAFLHmwdFaaYUIwKLid0g838sJRlUdDoNEhJ5av/rVr4SY0e6BqhiP0eR0HqcJ6y116Eq82E8t5O3nxCUiYRwLf+/QoYM755xzRCnzFzUkGqtPHNTklddjCJNh0blz58ZP81doRtuS+0DSI7FIECDcB77yEDorqM12nYra7bv84itejJ639vjxnOd27Rx0+/xXrv/8v//5vZ8/+uCd/1m66JcvlGz92LqK8jkHCvIGHkNtx1IU1a5CPlQ1ku9RsQcKl74kdR1mqciNg/JWnlvnyvKQD5XH9zpXAU8K7qM2l013fGWOSUhYY1JVn0+WLlyZ6llKRtCialwyEqZtS7eFj9GrjCPPcVXAeMXmTSBjIhK7kSNGwhOOlmHBptfgvYFiPBp5lP1b6nNv/TIEWhsCpoi1tjtm/W02BJAHtgErCn9wzz33/B8aZbqYv0JM8pq4chL5ZGKCyuLgdGDnpOQXhm62DjVDQ/HEdpKY0CWe735uWCKFTpUVVcNIws4///y4J5km4yea9JXwaY1GvR7fqSxGC4ILmU0wVpIu7mDBacpQDAEydJaFMGFNrMoNHzlu5SXXXPsyT11x8HDnkkOHRmzZv2/E7596+qIdhw7OPFpZORCBw641IBV12fnw/EI+F9qrrqEfFv5Txy8MtVEF4yVEaAsIFokWd7PEkCS0Mxk/VMKyEJqko72YyYqnV731WSqVq35fQzKTLoyZbn+ixySqlPnkST8Hx3DgfNMFB1gRiVy4GJTAnQcPuKOwNKnr3g0h4K5QxUa7hYuWNFqogjyx7iiSPgCtbG+GR9aaMATaPAKmiLX5R6BtA/DBD37wz7BlWOeX7lGiRa+tO+64Q8JqXD2I1ZY1alaqE5/ml7UUFKl+KTFiX0l61AnfVzWi4UW/tiJJJokY7So49iAhv7C+zE9ksGyX11LljTlltMVgqSQ632uo0g/rJiQTaENJmJAyCZ1BpeLvxZ3csPPOK99cXjHuZ489+c67X3rpK39/5pk/P7R42d+X7Njzvh2VscnH8tp1rSrq4moLOoA4QeWhgkkih3qPUpw7sGCQeFwWzUpRaiiHSfchCSM/YR5YPg4uwLqAQuwqwGeIZIExK7pUjYWhJGXJtlSKV/QcVWL93xOFHhPtT3adVOqYtiMhWIJbG8SAGXAlGSvDvd53BN5yxAFKKJXgXCk30DCPkl+xutjCky3lj9760eoRMCLW6m+hDeBkEIBx68GLLrrodpCFmK8aaTI0VTHWIsRW+v73v/+SQYMGlWuOlZ/vdTJ9aM5zSXp8sphoYvavp4TMX8HHvLC3vvUtIFBMXA8S7quRpJ6cdFJxg14khCw4nttLL73kYBMiChTbl1WXEnVMtkZS4pKi1sTQXkGnjq7/yOFu0PnnuIs+8UGXP23cNb994am5j29af8fckpJP7MvKHluRX5yVU9jZFeZ1cgV17VxeBRYfVCCciUT7AtRmjFWirmM5SiyBbiD1CRvXQKKvsJfXVy1ULnISKmT5NVmuuDrLdazCq9y5DpVZrgi/5bC8EhcqIKmfx3JLFipsTJxaUmhS89VkAME4CDnGRQK2GKtsq8JVrVOnTsU9D+6lKqbh2LJQs/WyxYsX15vQNedDbG0ZAm0MASNibeyG23AbI4Cw469hWrpcFQo/pEcz1z/96U9bUQJo2uDBg+fDmf8H/v6mrF7TCS2REtJc98W3j2hAeDj/igASkILgxRk28JNi8UVkTEky+qUXXYz8oJ6wmUB9xDquEsQUDf8GhuWY4M28ouBF1Yp1HxHqy8eczCR4qEfZOXnueOlx8V8T8oWTaqFAMeSXnU9TVvhyYeLnFC/dksmeHmT41r6z6zNluptww2vdee98t7v4Qx9xs972dtd++Bh3AO3ur40V1RRD8ULOF+kVOBJoFWo81lain1XgcfSZgK8ZSCQHKCtC8WJ4MVjtGITkGHoMCFiABUOVMamEzb6yLJHQNXmngiREhOE8qb0YgMlxB/n8wedwNPHP+pu2K3lvgl/wCk+Wd1EC5T0kR17+WTqVq/5+Bv3UZyCRuhbvk5AvqIK8r8CKq1QrwFRX79jpKkCCGcHs07sPqicEeWJ6DSXjO3bsmA0yNqi5nltrxxBoywgYEWvLd9/GLghg9eRxlDP6FQgWRI/GcSf4jRXjNRCTeiUKh/8G/mLzNGlfrSxaMpQyIesyv1CMCrzV6SUF8oUcrCB1COQIxOptb3qLK6A5q5Cv0G0C/6UgIWFYDpyjErlUpXgv41eqJlUga6WwysgKS+Js3LBRwpJB4r1SFJCm6kAVqwLhoAITA0nKLyp2nZAcfsEt73RXg3ide+t73JjXv8l1mDLL7e/cyx0u7OjKs/JxUfQztxiKDes2glwx7Ig2WBMxBlJRk12F1ZAVKMSNa4BUULlSUsL7I6W1BQcNyQVfc/D/GH6UFZHYVQ3iWIlXBS5XxeLYQZRUjkMev6ymVG+thuKekrHgasGm1xQO2HDz70n8c2K1UAl/KoUz2b6Gv5NQYlCSC0dSGYRnWZ+8CuHJIygIvr8sWDfavUd3N3PW9GAU4d+FtlVWVtYD4UnWnbTNEDAEThIBI2InCaCdfnYggDqMf2SuWKI8Khij9oCv2Fs40lGjRu1Bkv9PsZqwkmRMTU5bAwo+xdRS1Sz8XIMJGYsSQYxq3PmXXuRGjR3nssBAcmoLIGblSb4VE+BhcXC4MtdtqsqJLa/JrlsAWvU8gpJzs+oqSwpBfjoVw/y08rgrLsh1/77rLncQBcVzoJplg0DlZxVCfcmnfIVZPd91gklsv4kT3NQ33+Ru/ObX3NWf+qjrdfH5rt2kca4CIckjOKwC59aJoSoLY5OgeIW/yWs8FhQlIcmCn6nuUzoiUx+KbNxKsjBlOjWLLTXqu6eG+VdK1Va6EHS0xwE591HCZ+TllZWXu1dXrZFK6wVF7d2MGTPjp2r4OlTFslHqaEJreO6tj4ZAS0fAiFhLv0PWv9OCwMyZM+vgm/V/mGQC+3aad9KqgHX58EKJnrf8+c9/vpT7PvvZz949evTol5o6+Z2WgSS5SOCYVf+Sw6h2QfJihJGu9Vnwkrrk6itct/59XCk+l2OlYQ2Up+y6vOP5tTkrC2uyHi+qdnfn18buy4nVPo7Q1tyqnNqFsZya+Tnl5ftyK0pdRxjE7irZ5p5+6hkQKChMCCciAIai2Ujm79LDTZxznZv9pre68z74IXf5Zz/rRlx6hStD+aSydu1hFVHgDlfVuAocX0O/Lyg0VVBqsEIiPio/DJeKxOg+Pwyc6Nxk7aX6XTuTjnwlIlipyF46IpjuusnG7OMkoUtPmgsWkgaEjM/HUYSUN2zdEl4q5kaOHCXGrjyPBEwXgvBw1A+94Ew+03ZtQ+BsQcDsK86WO2njOGkEfvOb39w+fPjwmzds2DBH7Sk48TCJH6/Cn/3sZx/BRZ7ihaCgfQuvC0DW8loLIVNFrIFapIli+HHY6BHu/IsvWFpeVzmoPDerIyN0eXVZu/Nr3Zbc2qyX8X0xYlklmLyrarJjhXh1rsvJ6omw1obcHMQk63IuyO/YvuN//vzX/CVrVrvcDh2RNlbo+kya4kZPnYbvnVz3fn3hz5WNV5bbjlykPOzH9I7i0iS+TKinrxUwR4wQyw4kxMgak/yYjqhEiZH/QCRTnRI9NOnvZ5hfh5PTH5v4GJ8gRvvpL5zwx5To90zGmAyXoA+kVAFFZ4iZguVe1CI9gnvRESR95IhRDn8TbuXKVfFLqQoMg+MpWMjS66qrrtpz0n981oAh0IYRMCLWhm++Db0xAjfddNNPv/Od71wEAgYj9SDxWfPAVq5ceflvf/vbKz/wgQ88htczWFX2BFaOXdMacKRFgecHH6pjyAmDf1Q1y/pgLp41a/qrUyaOf3tVVfVomKiOQ1J6saxfzI5tx+4NyI3ahbEeYHo/7dhzYrE92TVuZ11WdpfSQpTDiWV1qiiv6rNkz74xvSdPdhMvmeO6DBjoapBYz+T6Ckz4JVS3UFaIdhI5efmuCjljIHtI3uf5yPXiikl0JgcJWUzEr+bKTdpXJMjd4/2J5i6dzL3InOg1vor2JZFKFs06TEcKUxGn6JVTkc9kWAgRp8Il7/RuE1mM8igWUxS4EpT42rRnv5vcp4cbNHCQGz9+ghCx6MIUFI/vizzAgWjFiNjJPHh2bptHwIhYm38EDAAfAZCw+0eMGPHs+vXrL4km7sNlvx3Ck7ds2bLlcaygjKEE0k9QVPsSeG3JMv7o8ZmoJXrt5iQUie4oVyxKtriXOM+k8xiUKG4d27UrfdNrbvxpTm3Wzvy62CEXq14IUtQuOycbZvJ1eah8U47VjRBKQM/y8rB4MFYQFCHMqTqOn7aVl84q2bPnog1bt+bEBg92F773fajdiJJCSMavxGFlUL+yMMnXIuRJ4pWLmCOtwrhWk7Uky2sREZZQKRc9IpiJC3IdJcieqDS1WNaoSp5PPpKTlgAF/x4k+xysXmx4fKJj669Vj3CivmR8Xa9/6UhgojYzJXT+ubJOwVu9SVQDUZTklyl82W7X4cNu3fbtbiKIWGFBscOzHsfS95/Dc1GwYMEC+okhX9A2Q8AQOFEEjIidKHJ23lmLAOpQ/t/XvvY1CTtGHfThKH71K6+8MhGDXzZlypRlKEK9HW77w3Wy8+s4NgUgP+zUlPMyOlYkmfhyyQZkjMWsuWfC2HHLz599/n/rKmuxWDDrOFbS1dXW1RbA8QEY5CLnPi+nJjs3tzYXqxSyswpLa+s6Hy4vH7R1x843r9y+/aKtpWXd9xw+KOagBYUdMKEztIj8LrlyUEQ8BnKVi77kMl+M1wUHrIbdBBcKiI0EXmLtgJJCuVQicYzUQ8Q56sWfTgHyVbJ02MSJTEhOEx2f7nqpzonuy4SYR5W1prSfbLzR65J6i6dayD/j0UmWOwI7PlZV7XYjPFmJQ4px3Lhx4127du1cKVz3I1sWTHu5rPJ36bC2/YaAIZAcASNi9nQYAhEEvvKVrzwCkvUQVoW9Njqxo7xLZyQpDyIRu+CCC/bNmTNnHomYEqlkuT8tFWTqTsiAi73tbe/4e1G7DsfQ/9zamqoCLAiN5RcW19Byqy6WDaEst/hwZVWfXQePTNp2+NCVr27dcs62QwcGHAdTq8bKSgeBzOV0RLgxx1VwNSnd6/E5UFtIxdTQISgqVA2yJaFf+nQRHNZy5MWEttE+Aqn+jJqJWgWpxktsS0doGlpKBMgnVcO8G5MorNj4vmlH6B0WfM6k7VSEKp2yFb1Gqrai+xJhJZZn4X2JL98QTzhgz8LoiAlv2bvHHSivdMVFBQ4LWVzfvn0dVGJp3ldv8ezPwkKW3jBG3t1Sn3HrlyHQ0hEwItbS75D174wggBqUv4P6dS1VsYjKlbVixQou27+fHRszZsySZ5555uZTHVo8KRBE8ghbCHkEVzQGpa5jrkePXttnnX/h0zUIOVZWVXbOys0vys0rqjtaV1t0vKa6w64j+8ev27X7+k37901Afcdhx2tqc/GSUKPLRVQWEzdyxVwuwo5wYmOuGK5H8oQkfF4hVOSEFOD/6iBz0VCV3It5SgxDIiEvIGah7VYN62OKEhZ4d+UyqSyy+epRQsIRIUpJw40JSF760GRDEpaSTEWYYSZhSJ98JSN8qcaciLwFxFfWPQT/T+4Tcge9sCwKEkClRC3PjRvckaNH3ICinq5//74w+O0jREz/oUGFkzljqCM6CnmSrDtpROyk/kjt5LaMgBGxtnz3bexJEUCtxYXt27ffD2f9Pv7kwxVjc+fOfR1WVn4fq8lqxo4d+yqIGmtQ5mr+TKJJ8IxD7UUmtS9Bdlitu/a1r39x8NjRW6pys/OOVNT1qsnKbr/n0JELVm1cf83mPXsG7K0s7XegurKwlPlEyPuii352AXzGxCMMQhhW1yHXHnM7lDCUDsoKagnJd25SXFuuH8/yEjNRJuDTrV6SxsMwpOSN42s2iJzktZEreOemU60CclZvkZVKPUunrCUiQ5ncx0yJVjKy1dTVkdqnTK9bzztDVY/GuIEsiTAxwENtzr2HD7lDxxGK7AU/sYIiBxNj9/zzz4sa5qu++Jy3bt26oTjZ8sQyeTjsGEMgAQJGxOyxMAQSIHD55ZfvnzRp0kKoYtdHJzjkxUwEEePks+7cc8+d369fvw0lJSWjdZI60Xwvf3VdQ/0nuu7OJzWZ3T6SHRXGJCoVeNK7wg5d3OzLL1u2t6JswNate6bu2LP7uuXbtp+3uaJ6cHUefMQkMghSVNwxcLKnvQTrSoJjkVzloR060VflMsAJ/QuJX1hPCXJFRQwEjaQKx1HxyoLcFYhjUGZo3C/rOFlCiByAcUhNJEcyP1dShm7/tWiz1otOpiNQFpqsfyaSkrPgNghpDYgu4efdgQsJV9giV2zV2s3uvCFDZGUtwvAO9i5xA2OPjGWBiDFh/+7MnkQ7yhAwBKIImKGrPROGQBIEkCcm1b4DpQvEAWqYpNfEYjnLliwdz32wsDjas0evrQG/4DLAXLFfCKa0xC/Nl1KTVb4zMR2GZA5LEV0+XkiYB5UhkWFbYUtCVsIXlxzKRfD/qEBJI94F8VlKOIYXE2KEF2gSVK0iqQvZER5RF73jFleSnfXh2595+pG/vfDCXx9ZvfptWyqrBlcg7FiNY2qw6jEGY1c2VAc/tVg1SuKwf7ANY/Sxlq78ofKVhwsW5ORjP0xggzNktpdJm/iEOWASfhRvMKgriIVJrUb9Xzx8FtaDBAnjeRLVFMKg6Gmdx+B3fz/zyvwXmV7D39CM/KY5aEF/MqkdKf0O86u0XmS8dmS8TXkYgleS2pGJQpm+2qdEJ9V7/LGV9Lqg/mdQwZvjq/8t/rvul3sRYJmNUDLLOxEfyeuDXUgey09V1rkF69a7Y2EB8JGjRrn8jnhuwpKggmcY7964bcu5Tz3/bDv7D4khYAicGAKmiJ0YbnZWG0AAy/bXckpDPkx2LYtIc+oKQjNZzz/73Pn4+j/+NmzoiNWLFi++UoiCqDshDeOywMjmK13xQF0gE9Xno3MOD6bJ8PdAEZOJP+QBIjNJ88HB0i/qXBIWJMEJlaZQHqrJynNFXbq6gs4d3ejZs1zPwYNcQc/uLta+nVtx7OiACpxVi5BUVk6xnM+C3pxsSQgDMsEQYqjMkRyFnSf35PE5ZFcNtrAf4YFiPiF911EH/Y1vDSTAMImfx3OcwegbtJ5OFfOioPVxygQt+flRgmaDfug1Q+B9TTF+86J3OFD10m1+fluyYzNpx8em/vjovfAGRgKFZyTkh0Gxc95i5u2hXif+teEKwLCzsEBif2W1O4wDO2E4ffv0daPHj3ZL5i2U501UTvyjoArPwp49eyds2LKxL64SZPPbZggYAk1CwIhYk+Cyg9sSAihjtB55YvuwbL8X51YSkXCyy1q5dvVsxeLiSy585H/3/veDcN8vYK6NqA1CIlRwbkzIGuAoEyEmR56nioYoDqAvTGSXYFGoBYUkDdFBWHgFhIsTYw6TrqkwsT6jlAQKyEBB1+5uEMJLeX16uxEzZrguvXvDXBUhRyhdpVA7WOi5CodKLjx+Y/gR9Y7EZkJDVs11z31ikS7RPCBFjQlN5uQkOSFqnGeWfISNjuV9IOQZkC1tNdpG9Hf/6unGnGkemI9fg+vLM8bC6+E/FuRdBiS/yVNHEg518/DxMrdp+z43aGgf17VbV3f+Oee5JS+CiIWPdUAmobJWVbVfvuxVGrsaEWuuPxZrp00hYESsTd1uG2xTEHjzm9+8Dcn4C1etWnUtiY6E2cIGSstKuz33/PN9L7rwwp3Tpk9d2LFDuwOHDh3uG+apS7meqBt8Ap1CWhO9iQQMqw6DWY4JWPwtIHAkaHpuOG0GhwVClcuFekHCxrAj4o4ur2NHN2TyJNdv1AhX0KuH6wH1qwb1AivqatwBTLaoVk464WKo7VgT0L0grIoXJ1ek4Qe2Eb5i1QTgmkK4vFyjAIuE5CvgDYkITcJrSVgw6HA6EuSrSMmO1aHH93u4pBprpqSpMTGsJ6Dp+h9/gLz7kw5/5utlSwWD4NkK4CIBo4qK54J5gCDo+w4fcSs3rHdzhvXBitgch3+YCK6y2jUkbcGNycpZMH/RHHRByn/ZZggYAk1DwIhY0/Cyo9sYAv37919MIkYLizqEJ7MxQTEhff+BA0OeffE5zExu56yZsw5OmTJpy8FDh/pSNWO9xGqStgipCIWyRghy2qXCxRWEOWByWcibqo0hFOqFv4KcnmDilN8xGWqxZldY7Np37eGKevZw0y+a44p693Q5UDCqiwphh+/cLhI6JtqDePFUlCyCmpaLgpHICSL/ywJ54ypFkDmWE2IfAuOIpm9RYtWIxHiYpFKV0qlW0XMzaSvVaFKRsKaoX7xGKlXLv86pXh3pj7f+urICIggLc+WqKLh4tpmHJ/94IKFHRiH8xMrKKtzW3bsljMlUxDEjR7sevbu7fbv3y3MDf1/8TTC3zLlN6zddNu+Vud+fPeucY01/auwMQ6BtI2BErG3ffxt9GgRGjRq1+Mknn6yuqa3Ny0G4JljhB9Wgti536dKlY/HtaTYxafKERUuXLDuXE54oCwFXSrglImQMPzLkRU8tShTMiQ62gIGFEch6VS67yA1EAnWH3r1ct9HDXf8J41xFEWo3FhS4oyBZ1ULioGxJvg+jUVTZoHQgB4hFtnlAIQiYhFIRikQdbiGCnFWZhE0vKSV/zfWQpFNqMiFXTSFF6RSpenKSfISNCCHvSKsOTQbPl4adZSGEWIlIZiBGh7wvkHE+IzV4jnYfPuZ2HD3uBnRq70YMHQ4yNlyIGJ/xGP5hImFMPGPHjh4dsnbthkFoYEVzPS/WjiHQVhAwItZW7rSN84QQmDZt2quFhYWHy8rKewSr+0CYJCzjsraXlEzSRidNnPJCzP39o0K+oJ4xrJgoFKlRs/rgU9ACvOmRlxW0n19Y6EorKgIbgfgqQTAl2El06NnTTYDTedHQIa7LoMGuqFMHV4FGy7GKsQIXrEI7tSBWzPERAocajtnoN+s7ZiE3iGod88CYR5aNCTiYfKGQgahJHhoJGFf/NTSzT4qdGtlGC0InIlXJiFimIUHtRKJ2GlwvTWgyldqWSSjQX2TQFIWL/W8KBqmIqb9PVy9G2/e/6/G60pMPsCbsByQ/iH8HzyzMdPmA5uRBEdvjNu3Y4fp1GuW6d+vphgwc4p538wJRVnIRyeBzXGV5RZeXXnp5BH4wInZC/6Wxk9oyAkbE2vLdt7GnRQCFvTchPLmxrGwHiBgnLEpIwWmbN20875EnHx559WXXrBs2atTajt26Hj564GBn5tcEkb1AE4tH42SW42wXuNrL7/zK9CxMarVUGfClFhNgLSv94XNht+5IuO/qeo8f78ZOneKKOnRysXbFrrR9sTuC44+AdMWnT3wMTCp4aQlCBtcia+RUK4nZ7BBIV5ikLYQRP0toKmyJ76HNalp8TlbFaioJS9WheF9kvIm3dNdLO+AmHsDrpfOVa4rKFzxPURrfuFN63cZ7glzHIAdR1tkGJvuhSsYQZBw9+IcdQM3JbQcPyONckJ/vxowe64rwDw2qZkEvAmuQOleTt3bdmin44Z4mQmSHGwJtHgEjYm3+ETAA0iEAG4uXt2/fPjuLqyDDBYn8uH/PgZHIjRmC89cNHTlyw6DhwzcsPzB/OslUxAchmNw01kdljTOeLgBAmwjy4JjAJbUa6lT/WbNd1wEDXN9x41yHvn1cLUKOlcjbKcV5yI2G0hVYTDCIGax1CzZ+FvPUMNk+NLWQ3DLfYUJVHYal4qKbTKsMvdG6Ih0qyfefyhBkIhKSeQgy2aACCpqIpGVCehSJTNS06LE+iulwS4Z4Y4UvpEgJFz5wHwPheAL4LIXPScCp+HwrvQqeBYaoS44ccUdBvLrhoT//nPNd9x49XMmePWF38ATyNDxGJSVbWQDcNkPAEGgiAkbEmgiYHd72EEC5o8dffHHubcivgqtD4O5FooLJLHvl8pWj8PWx8cNHlr3jYx9/Ye+x0umF7TsEWhhDlExqZphQPtMEFdk3KBOUC8PUbCgOTP5nJjSNUXMReqQ3Ux32T4TXV35xe1hM1Lk6kjDkdtVgoqwSOzPaS+Bc9IFGsGoIG5/kGVqiKIcdrNfIVXABORO+EaghccmIxC44U2mKJPCLyWfqe51ODYsSi3REI6oepQvjSZ9DstHg3et3KnJVvy8EJUF7cUw9UhPPr0qwIMNHLBk+mfQp0XWTtReoq4lvVkIM/Rsu4liogcozUr9SNxvPJUPdy9ZvcvvOP+66dOroRo4a7TrDj06IGBd98HysxuUilR3bd8y44693DLj1lltL2t5/JWzEhsCJI2BE7MSxszPbCAITJ01amVuAOteVVZ3FZ0vyv2h26rJeeuHFywDDzwnFiPHjlz637FWX36GD40pG5nQxVysHq8uyoWZRycqGaWoOCVdevviMcfUiyVkMpKwKpCsf4R+GsirbdXZV2FdD5/oaBH4YdsynZz3DijhP8nPqQ3C1YdgxMOcMQosQzerJlUyw9Una4rYe/OIRLv0t/Y1Np/6kI11RopGuveTBxvq+ZqJeJbtO+hF71xEm2/CMZCQyFblMRLZSEbl0x8v99IhpPBTt/R7edAlZS4RSOKhWGeBS3MCsV42Ba8E6N+3c4Q6Vou4kiFjnzl1gYDzMLV+z2sOAiz2QJ1ZR2WXFiuU0djUi1pQHyo5t8wio42SbB8IAMASSIdC7V6993bp2g8s+JiyoBJy7+GIu1sa1685btHhpF547dNjwLUUdOx2twOxWgxWJVXWs1ZjnqpGKz1dNdp6rhM9XOQotlkLZKkMksozvNdmuvBqlhLLbuarqPLzwHSliVdVQtBBPJGnLAimrYwkaZqmJAsHketR3zKl15Xm17lhBnTtSGMO7Q+I+r5/t8tBucVXwygU74/8YdszG9XPwna88yGZ8cX8umJu8JLH/xJ+HdCQsnZJWTygadkJ0myThtkTdTRayi1AooaNREiPfw+tlQvASnZ+KOCUbR3DdxtYnDaoQRG5N00KTZOeB+W8jchsIY8FGMsZ+4B8P5VhJu+tomahjeUUFbvb55wVEjX5jIPj8h0G4ZW/ZsnnkiT85dqYh0DYRMCLWNu+7jboJCKAAeOX40WMe08m5FuaW1Qz/4YeKqsqOW9avHcd9UyZMWNmpY8eD5VWVrhpkiWWR6AdGAlWL0CLfSaLqoHzF8D2QHgKPJqpszPiK1VVDAatxx44dxTxH4qer05i+w8kvsKSoY1K/qHMgVnixxBAJVC6azZWah7QkCF51fPdVHLEsaPwKiy8mjEkG9TaDEJg/8ev3pr8Hw69PUGtYOzLI2QrJgtRRZNHwMPeNeUzhi78zPMZ98h5PRA/Ol6/xOpL6W/17nTiaCuMKyGdcHQrajNeRDBoSqw+BMsTBx8N/pE4EJz1fiqP7tSP5WX7j/a5/D6owNLwnifqgfeEqRy7OCPICgzR9sSwJMarj/Q1D6JJ1iPazcwtAxLLd4hVr8I8KHIgunHvO9NBrjlyM1Rjwj4jgVmatWLnyipdffike+G7Cn5kdagi0WQSMiLXZW28DbwoCo0aOWIrjxUNVJnYavJIMgfc89+RT19RUV+f27d71WO8e3WvoQh6sVAxCmEHBaU7gwXfxDKM5hfxWi/ZIykjQqDkEhqokcblScijM/6ESF9hm4LpyNj4HVb6zqWxhQs5HM3kMYeIlpA6dqMmB4SYYiu8JpsJH0Fborh75HMUmSjhSKTqJcE0XEkyrOgWcNU6aQoYVV3DiM3+o6NRfL4O7HFGCEp7hH5PggHTjk64nyeNq3FxAQON59HHCGo4/jkPjNtPfF9HbpKH4sYqZPlt+SBuh9TJ4zq3ZuBkVGYLzBg0a4Pr16VWf2M/yWiHRL9lacsmOHTsGZYC6HWIIGAIhAkbE7FEwBDJAYOSIEdtys7OrlFCpisJT5y6Yf/XRo0f7ISrYcejgIR2oMtTRQFXztjCjihpBFUy2YJWjTrTREBgnSJ5fVUViprGiDDrZwg7JPATZuOPpCUX9OY1Dc6mBSESakilbiVpKRqgy7XO60G2y3mcWam14dubkrz4UG70+VwsfganroVLEy/Hkdu3azU2cMCl4kknk8VzXUlnD57LS8p4lJSX9W9ijaN0xBFo0AkbEWvTtsc61FAQmTBy/vlu3bhvFd4veFRJSDPLFUO5o2K5du6+HKeuiGVOm9CpEYr5DCFL0q+jKOn6P06tQnaBiFob+ZHLDd5KwivIKmfjO9OaH4bR/0fdE4Uo9pjEhC0aUjhAlCv+luk59mwF5TXRsIjITJUaJ1L9ERC2ZCpbqGtE+6b2NjjVRn5I9B4nuT7oxJCR1EcVO2yhgtYbSMrdizVp5dtt17OLOO+986Q5XS4r/HT8H9U9z5s2dJ6F62wwBQyAzBIyIZYaTHdXGEbj0iiuPDh025GXCICsOxcMrUBGOHj7cYeHixd/Ax4Gjhg52XYqLXS0y7XWyk0ATBQNf3AonPd2nwhfJXY7MaHTFZ/gywbmn8V5kRnyCDqVSXxpO/AmS0aOENcUYM1F5kpGkpkCXCflKplIl6mOyfqf6vTGJbUwy/TFlct1kfdZ2/HHzcy1CkoexanLVpk2BLQtyFIcOG+ry+A8OWUAS5CDqI714yZIrmoKzHWsItHUEjIi19SfAxp8xAgMGDFhFvsGVYjrrsGTQoWPH3MKFC7pwkuravr0bAiNW8XaSxO6AdEiUMiJuSb5ZWJBSSwQF+WRBaJIhH93iZK5xMxn3/2QPzIQApSIFyUhCIrKRCaHwiYNPBNOlYjUiImG+VFSFiuKVjtxl2udkqljTyGxmOWcne8+CtZPwEwOoe44ec0elkoNzw4aNcEOGDJIFKOLPL7mMwQN+8ODBMc8++2y3k33e7HxDoK0gYESsrdxpG+dJIzBnzpzn8vMLjouPFxOUQaRk8R5a3rxlszt45Kjr2qG9Gzd8OFajQSkIazryONZ/rPOL+4W9EYsAHJAtrv1h2ZhQFTuO8jI1SNqXfZgMqZSJSqalik56RI0bSLU6UolCsPou6Le+or9FvzckaMFKUD1G240qMfXHBNdrSLZSXz9V/1IRnmgf/HYSEbNExyfCJ1U7/vgTkctUypx/rl43im0U32ifo9dsdDzD5jAg3rJnn9uw90CciA1HEXBu2fTB4yKU8B8ayJccuGLFin6n4PG0Jg2BsxIBI2Jn5W21QZ0KBKZMmbqyXXG7A6JUyQrInHgq/foN613Jtq2uA8jSyEGDxOCSJIobc8pksqIJq5IxXQWohCyak4/Jr5aFuEOPJrmml0d2KsaXihBker2mht8ybTfZcU1VfDK9Xrp20+3P9DqpSKHfRjo1LtX1muOe1ODZ27p7r9uxZ6/8w6MDTItHjWCNbz7S+FvASmEuKc6jCXFNTfHcuXNHNwUDO9YQaMsIGBFry3ffxt4kBGafc25V3z59VlIDC1QxWfsoYcdNGza61auwC9ugXj1dt06dRPEhU6urDgiZHB9RkpIpMEGtSBi64lxZEsDz0F66AtJNGlCCg5OpJXpoNKyW6PhoiK9xyK+edUbVnlTqTyZkJDimXj1Lhq8SIDle7RsiqluDYzysEhGb6G+JrutjmEwhS4VnMlXQJ3OJ+hG9zakwT4Q/zeyoiB2BP96uQ0fF2JUq7aRJk1xxcWF9+B2hyVD1zVq7du25J/ss2vmGQFtBwIhYW7nTNs5mQWDChAnPyUwvhIqqWOD3VI3k/PXrYL5PItavn+vTq7errqwU4kQ1qw4mrQxVxic6WWkWkIAgiT+xTcWxo0fF9oKeYvFzT1FoMp1y0lQVKB0pSNVeItLh38DUhKVx/lS6vkSJpk9uogQqESnNlLRlMuamPqipSGCyvia6RqJ2+OzWIBxei7gja6Cu2VLiDlWQisHAePIUWFl0DR9dhtf5jAY5ZLt37565YMECmI3ZZggYAukQMCKWDiHbbwh4CMyaPXNebnZulSQoh4nMkoSP16vLlrlj8Fvq16u7GzJwENQshhNhsIqwjeg0dDUPDq03Jw3Wm2nuf/xKchzIWnl5mewTywxsuoqyuW9KIqVLyYX/Hv2cbKJPRXxEhEpileCPK1PlKVmfMsUowL8hEc70eyZ9jGIU7VciFSoZEY3+ngqvppDZRH0KfoO7PsLqtKioxTO4esMGd/jIEdlDY9dePboHh4VKLwplyVcQsYmLFi0amOk9sOMMgbaMgBGxtnz3bexNRmDEiBElHdp12I9Uc2FTgYNSsC1asMgd2L9fSNaQwQNcO4RtYjVYVYYfggLMXmgyLNdTPwkLOwlc+MP2mHNDFU0CoOEKTEncT7cssMmjanhCpqpNMlKQjsREu5fp8alIiLYZHJPY4kGx9q8nnyNiZLr+ZEq+ouTWH3cmGGfSj0wwSfQ4JLt+lBQG5bckFV/qQezDgpSyajz9wKxjpy5u1swZUvYoeLQDGws+o8wTW7ly5aCTfBTtdEOgTSBgRKxN3GYbZHMhcN31128ZOHjgMhhMQCWgvUSgjPF/u3budFu2bZFLTRw5zPXq0M5lVVdJ7UhmelWHtQ+pavEPLxvfUQxJkv6Z/M+JDIWOUMcSpYnYMiY0KhHHjx0PainKhIcry3VPbjvR1ZE+meHn+hWCyg9V76uvHanlepg/JDlEXCVKDKj0kZB6L1i0N/5NXEAa14lM9ptkk4d1IqPvcT+3eK3KAMdkJM0nOv5qxCgOib7rHWKNSH1pTSn/u9SQ1FpTXu1IbTPditTANkKeqIQ46e96jNblTIS/3pd4/U6Wy4Kymw28YgV5bn9dpVu+uUSez6y8XHfhOedjX0DEWBs1G8wtxCwLRGzqyT2ldrYh0DYQMCLWNu6zjbIZERg5esRiaY6Fk8NakHznKkfkxQh5GjN0iOtcmI9E/SohK7l5+fhdSQqJSFjAuj5QGfRQVLb6ebmWNg+6elI4DBYKIFR0sltU+Uil0CS6VrrjG6lOJ9HhaF9PoqlGp6Ybx+m+1sn0J5XK1dRxxNsCAUO5Uke/vBhIViWezkXLV7iKcPXvyOEjXHF+rvwjgXpYDYrW67nr1q27aN68eR2aem073hBoawic/H/R2xpiNt42j8Dw4cO5PDJIsffChPz88ssvu6rqatexuAgJ+72CYt8gU9UgZFTRghBO6IEluUmBEhZsYXjSQ5jUrQbhTZK5MEoUhjlP7jb45CZVqC2q9ETH7PcimaqU6BjNKYru0++J2vKvHe1/IrKWLGwX/T06/lRtR+93omMTjSHdNRI9S9HxJsMq2T1JRLb9sSciywlJL5VZ/oOgBgXpobpt27nD1YRlIvoOHOCGjxyOf3CwF1B3w1xGftu3b9+Ybdu29Tm5J9XONgTOfgSMiJ3999hG2MwIYOXk6qKioiM6kTEnRp3xN6EMzJFDh10+FITZ02c4FAp3ebnwWAKZymlAwsKcGsm/QahRQnYhHfPynJghVlFRgdqTKLgsPmIwh0VbJ7OlU04yVWXqJ/X0vWlERMJTEpGlpvQvIcEhpU1gRZGKyCQiM6n6kei66dr3CVoqxFIRyEREMNF1U93DZH1P9LtWdJCqXlTGQMQO43ncuHOfRIB79O7rLppzSfDs6kpgUjI8qJWVlZ2WLl1qBcDT/3nYEW0cASNibfwBsOE3HYG3vvWtywYNGrQk0Zl7du92y1escPnYOXnsGFdAEgaFLBsKAnPFaEUhW1xJqydgkqQfJ2P1ZKIaBcBrEJ6MBza9Ca+pvY8qIqnUoUSTeeLjU9eObAopSnbNTMlhQ2zr0VGlJx0JaQqBSYb9iRC4VBhlSvoyJXCZEMZ4W5J+Hyi5YkyMfDaWOpq7dGmQlYY8sWEjRkqTWiPV87rLhkJ8UVOfUTveEGhrCBgRa2t33MbbLAh07959gzYkYcPQ22v/gQNuIfLEuLHcUc8uXVAAHH5iOIZ5YQEHC9ZaKjnQlZL6XQ7ixIeDuHKSakQOV08Gvg+isonJ60lumZKOdEQqOrFHVZumEhbFyH+PtuFjla5/qYhRsmukU54S9bHB/Qs7nAnGmRxzore6KaRQr+Gfw8UVfLRZWgtJjiBb+e5oRbkrOXgAi0qCfzcMGTrM9ejUMXhWZaUvldvg+dy4ceNlJ9p3O88QaCsIGBFrK3faxtmsCEycOPElzkP+pMMLMGF/I8od1SLviyRs1LBhLkuS7dU7jLleXAYY5IWFqTbB6kP5ISBoXKVGJ36Sr3yUjSkvK5O2o3k46QbV3Ksjk60cTFY70p/cfVUqWT3GxCQseU3LRCRMfcGSEaPo736/+Dl1ncz6vmRKFKNjil5PvyfCJBF+2p5/Xio8o8cnUtgS4khSRSNXYsKwZHaeKLPZRe3czkPH3J5S5j06N2H8JDd65JhA5fUsXfjsHTp0aNiDDz44Id1zavsNgbaMgBGxtnz3bewnjMDFF1/8CvPE/Ek2KM4tKoDbvWv3zq7tisvGjx4pJKwGLvsNRCwu9Y8rZEE3xISAc1kgfAXqAv7H9zIQMSFVOIaTYaZbItKR6bmpiEZT2sj02ETEKdNzW9JxqRQun1idaJ8zaT/TttO1xYUkdNcPbFaQC8kaqlBnN2zf4daXlEieWN8+vd2wIcOCf0jwYQ+fXbaNwvU9UXdycKb9seMMgbaIgBGxtnjXbcwnjcBNN920pnPnziV+KEbDMatWrapF7cnvwR1sVr+ePe9rV1hAhyeQrGCFZCNFhDNX6GulBEyTxUju+KpGnpnEiEIylukAEoXw/HN9JcTvVzoSlow0JVObEl1Tr5FMuarfH5ydTLVJNgafZKRSx1L1I9G+RDhFf/MJV7Tf0X4lG5t/7Uzud7oxRq+TSBmLjpdWLHX4lwFD4/KMoowRguxuz6FDbvvhQ0K+8vLz3KDBg11ObnCM/zeB3VnLly+flEn/7RhDoK0iYESsrd55G/dJIzBkyJD5bIREyZ8E9+7dm7Np/TrwMLe+b9++9/Tq3sPVIOE+CJnBaV9eXo5Y6MmUqEOBh1hAwBiepBUGc8Qy2ZKpHYkITar2UhGJVCQiEflKREKi127cv9SLAfw+JBpHMsLhk6VEfUhFEFOdm8m+ppKvZPcg2b1MR26j9ybZs6IFIRgiZ2i8Bs9eTm6+q8Izu3nfIVcRqrozZ89yXbp0ppmYhDP1HyW8DgqAn5fJ82rHGAJtFYHM/oveVtGxcRsCKRCYPHny49yt+Tl+0v6rS5ZOR4Jz9vBBA+cNHjDwmNhPqF8YJy+PfIULJcMraUI/vobJz7VIlCbZE4d9zowNT0jYw0QqUbLJP9EknG7ij5KNRGQnFQFKds1khCBTcpOM1KXrbyLSeKIPfyYkKBXmycba1HuSyZjSklQ+hlRhSbDwoqM+mBbMXXPc8g3r3NFS/OMA2/jJk1yHDh2DS/Lxxj8YdNu1a9eEO++8c/iJ4mnnGQJnOwJGxM72O2zjO2UIjB49eh0KeldyMtP8MJ3YlixZMvHQgQPDOufnHerds0dFUUGBeIlRWZBqkuLIry4W9ZOWJO8zN0zeAz8mKhG0BmB4Mi83L1x1GaymzGRLRW5ShcnStZ1OcUtOKOpbTqfOBaQmnN+9Vad+243GEDk+WT+EM2jj4edMSWmUbGWCcSbHJMI8HTn1z8mEECe/L/UMP96OKrdc9YtnsQ7/mKjGPyJYAHz91m3u6PFSaa5L585u5IhhDbrPvwk+v8wTg8v+gHTPk+03BNoqAkbE2uqdt3GfNALDhg3brjYWqoZpSGbx0iX9d+7cOQzzWN8xo0eU0mm/Dj5ikBIw+dMAlmsnaUnBBH0WUUaVyTq8ELbMQnJ0loQvUc8SRzFHh2SME2ElFAiuqGTqtJRUDMkY3yShOqzlyMFxHaaUYQ5XYiZbWaekgu9+7UhaFyhZTPSuNSS5rym1I4OVokFdxGgdRK0fSUGlvpYkBxOS0/Bda0amqh2pRMsfX+KxJg99JiKKTFpvztqRjclgw7qa0TqSUcz8+pCNakUmuDfJCKiPjX9MFu4TeoRR17rcGEp2ZSNEiTJbpZW1bv3uYyLQtisuduefM6vB3xSf2fCZytu8eTOWVdpmCBgCiRAwImbPhSFwgghce+21+5En9rJ/uhKx8oqKjmvXr7sQk9Sc8WNGd29XhIR98VgKI4tx91bSKU5lYewnVGjUvJXtQXUTM82ayipXWVbu8hAWEnIViVImVLeCltNuTVFd0jaW5gBf5TrZtqLnn85xZNL3U9GfE2nzRM5pOD4SYXrh4VcWngctq66JuVfXbnTlpNMoCD55SlDjW6/lW7ugAPhFixcvbp8JZnaMIdDWEDAi1tbuuI23WREYNWrUvJBJNUjYr6mry5k7b9410MA+1bdb1/ZdOncKFDFRdLTWpOhV3irK+q6FlkzxfbIggKQKUlFeXp4oafIKT/FDZdFJl8f4yk4y5cMHJtXxOtnGJ1z5oWGYz5+Q/ePr+6a5cPXvUfWpUXjMC00mGm8i9Sra1+jYo2OOtpvsu/97omskGr//W/QeJbqO9i2q6EV/j14/ep1E14rek8aqnJeISAUXrL9OwunBvwBy8I+BcvzDYA0988I/gCHDhrs+fXtI99RdX9tF6a/ZO3bs6Nesf3zWmCFwliBgROwsuZE2jDODwLhx49aAJFWrEsaJh8SHKtT8V+b3rSgr61GUm+smjhrrChHOidUyPBmEDWWSklfyvrMtFlzmsTkoJ1ON81HDT07gH2+cZPlteDlSgfCWQXa/HNaQHCXrVaOJXSbixsTKJwyJ2kp0vYQEJYPVCYkUn2QExO9LMmKWybnpxhfdn4p8JWsr0biiWKYiWonGmuovJeH15LkISVj4ng2TYRKz/UePukMVNULGevXt66ZNm56w+aNHj/Zev3794DPzV2pXNQRaNgJGxFr2/bHetXAEpk+fvrpbt26b/W5m0XMJ2+7duzpuL9meXYjPk8ePlxwu1p0M7CtCJ/2QKEkoMiRmwWQY5Gepiau66leAhJWVI08svGAsXH3JcwIH9EAmy4TkBJduGoFqKplIRpDSccNkBCQdQUo1nnQE5kQetXQk6EQJon9vEvU7U3yaQvAS3lskITJHTBaXhIqYZIyBeWXBU2w3/MQWrlwv5Y46de7qxuE5174zpK4bnt/8hQsXTjwRjO0cQ+BsR8CI2Nl+h218pxSBSy655BAT9kUJw0QVhBADcnPgwH63euVquC45N7h3D9eBeWLQDrKyAmd8VWPiCedCxlTlCrqt7eqxJGSSNya1J73QJObKeGJ+ghH7k2wmylcmx6cjRX43Gl+zoUqn4/MJSLz9MOwZ7VM6EpTo+j7uiQhO9Pp+v+L7PMUx9Rgb34hUCpePUVOwTTUmfzzam6bc2+AfCMEKX1kHQk7G75B8c/LyRRFbu3WLKGJ5WTlu5HBUkgh97vQ6qhavWbNmxin9Y7TGDYFWioARsVZ646zbLQeBME+sgbrECezQ4SNu2eLFQst6YHn/wL59pPi3qFicyUKPCk5U/orGBiPDvmrklmXnMkFfJDJZQVnL30j+0JYobWHZo0AZw0pLDX3GHfv9XLSG9RTTraZMNZnLZMuct9BRXYlLSmLl5cUlq6/YkIg07HsiQpbsN8EjDO1GSZVPYNKR04bn1q+yjI7X/55p7chEZC9Vu9F+JyJticaTqM1091bPEbWV/zDgylwQMZad562vRbh958GDrixcETJu7AQ3GC77ulEV075gFfHYF198MUgis80QMATiCBgRs4fBEDhJBGbOnPkSEujF2ZKTjioC/L5p43pXXlHl+oCIjRk2wtXC2JXGEwxPhhnugYIWqiyS84WX5nb5JrHa/vHS0oBc0M8JBKyBdYa/klLjf14cMFNFpqmQJMoRS0R8/HaTkYVG1w6VxujvqcaSiGCkGlO6ttLhcaLnpzsvHYanEpN42/gHAP8RQBsV6W8NCteLqJvlavC9ZPdet+PAITl8OIrcDxo4SD7zWLFdCRWygwcPDpo/f74Zu6Z7mGx/m0PAiFibu+U24OZGYNasWSsKCgqONiAZnKZAilYuX+G2bdnm2kPRGjFoAEKKnKGoWLGYMglZ4FguifehqkCfsGCCDthZDlQHVVey8ZnJ+rlYtZZLWwu9KNUJtCc5YuEkqCsZNQiYaNKPkqFU6kr8UinyypIRIP86meaHxUlIeIIahCYjJ/7vqRQuXxny+9uwjw1VOH/siTBqCjbJ+pZIGYs+q8mOSYRJovE0eEapZEZuRuPnISj6LTbEKF2UjRdLbImVBR7aXBgVr1y3xm0t2SpNd27fwQ0aFBAx376C36uqqtrB6HhCc//9WXuGQGtHwIhYa7+D1v8zjsCll166r0ePHusaTMbMpcEPqLPntmzcKLt69+zpunbqBJWgJrCtkEAPNq8cTIOJUiaz4P8paaOpKyc4eopJ2RlJoG6Yb5UOkFQkJTpRJyIC/K3BJB8elKwfja+XvnZkojGkIw0N8I80ECVfyY5NhWX9voD+NqU/qchbqrb8fp7M9ZLdx0T3u+H9CnIfmRsm4W48qwyvi58YXtko9F1ZXekOIAzPLQfEbOaMGa6wCAbGPDZ8PsM8sSwYuwZmY7YZAoZAHAEjYvYwGALNgMCkSZOeCObmgGSIcStmr6qaKrdhbcDRhg8Z4gb07++qUQCcyoJMasGBcR+u4PygQ8F7QMLkOPwftQkqQ2UoLVNbzTyx4EAhdaE81ljVaJjTFJ34Ux2fiAhECUHUp0zbT6TS1I+rfrGC314iwsQhEgN9afs+CU1ELlMpT4kwSEUkG/RR8++CGx7eq8ZkOBPilAijZNeK3wvv+tFHN/k1w2fK63Oiexu1OpEVkvyHAK5ZC2VM8hNR+5RhcZbcquY/IqD2VuNZlAW8mFHOPe9c17VLlzguwd9D8HBu3bp12tNPPz2kGf7krAlD4KxBIPesGYkNxBA4gwjMmDHj+fvuuw+RwVj9mn2wJKpWixbMd2WllW5At86ub/fuLrZ6peTp1+dVcUUayZaeGkzqnLpECcOH/Px8VkdyNahXSTPNKqhqrD/JcBEy9SUkKZNwPMEsMzBSKUD+RJ2otTgJCfuayRWDc+IB1bSnxMeUIoyWqpETHV8m552661IpDf+NzHC1wgXo6GjfiCxJMfmgnBVLXjUIRQt/D2LeYo/CxR0ssxUex+PpB8bnp159DeQu/mOhrho5XvjHRA7KGmGFiMvDnk75xa59fqHr3KWbu+KKOW7y4F5uFHIg+Shy692njzyvcs1QEeNzzH9A7NmzZ9SqVatYd3Jz2ptvBxgCbQQBI2Jt5EbbME8tAn379t2PyacU+VsdeSXOeSo3v/zSS+7QgYOub7s+bhAmqQ6YxGqhJuTk52FuAwGDDYCQMqo+YG7ZyISW+n4yH+Kd5pkkZFyxJuWNsHKSBcQx81GlEMUBh0p9xvDaMlrysiSJ+gny+GXGV6IkSpu0FbTdgJgkPJm1IwOS5ZOthopRsNJOJmiv3Qa0zBOW9NrhUOKqSqIxpVOWdCz6FPj9Ep+skO3o71SC6sffMPwbvX4yFSrRNZPdD79fAfZKnljlkawpUE75TPE7P/GIHPyWC44UwzMj4UO8arKZgRhsdSRPeE7ySL6gWmWhLFFuVi6enXxXBoIVy8/B8ThH2g2UK/6jgHmKbDuvtsrlVx53xchNHAgLlvFDB7nzJ05x0+EX1qldvmuPfzvwnw+83tbNO9zyV5e5Z557ypWVydqVUB0OwukcO/PE9u3bF8hlthkChoAgYETMHgRDoBkQ6N+//55evXqt3bZt24xseHzpVMg5dR/8xPbs2un6DuzjJowd69o9/LA7WFXtcnOxF3+BEnrEZFlPBzizkcmFdCAQKILEfv4vnCyPHTvmClBMnBsT9WkkKz5PcnqYf5ZgbKnCaf7hiVSh6Ln1xyQPzSW6XirFKZN9qQhNqn6nGl8qQqXnpSNSidrPpD9xjBh+FrUqJOLC5uXGB7YnpEvyOVBKeSwZu4hi1NHwTtJVL4uBdIF8kdTnQM+K4ZmqJoFHkflYHp+XOleDlbwFLJvFFbiVFS4fR2YjfF6UX+BGDhzgZo4b5QZ2a+8mjhjuRvfv49rpIGtjbvvmbe6xxx93CxYuckuXL3evzH8F166VMly6uEIXmoRkLGvp0qU0dr2vGf7srAlD4KxAwIjYWXEbbRBnGoHLL7/8wFVXXfU4iVggIQU94rrGUjjhL1yy2E2dNc2NHzXSdevU2R3au1/UDaoPmP7Ax+i3BO6lkpZMxpxAAyWkfgtDe/itBl5i7VA+qQrqGpP4NYTVNAIVtNxU8pMM74xIXoSznQypyuR66QiWdKcBxonxSKbEKX6aB5UMz2QYR3+vJZEPWHc874+rFPnABNYn+pk9R/FtEjAu4mC6FgkXSRle5G25uXlwm8A/C5iTiHYroXCRhOXkksXVuFyeU4dcw2PlrhjPW5+OnV077JoyarK77MKL3OB+nV23Lh1dJzTJwlqlULq2wMB17ksvuvvuucetWb3WlezY4SpB3LjlQeWtqdYVwZovGahh4Tizli9ffj5WT2ZNmTKlMXs/03/Idn1D4AwgYETsDIBulzw7ERg5cuTiRx99FGIF68KEISSGiqAQPPHE4+7t73m3a1dY4Pr36e0279kTxBIhVbAiUjjvNuRbkoQf8CtOYhou40F1LB4eamgkZBLmpKkrQ0BhK5mQlHSkoSlqVibH6jENwpFJHod0BCrRaenOSYhJJG8t0zai189E+Yri3egc6QsCj1S15N4HxEvuquQAMksM+xmGJvNiaDLGIvCMS4bEXfLKUH0B9iaVCF1XUZ+lWgrvlCzkaeVRDasoQ0iz1uXj1bWw0I0ZNcJNHjrAXTB1mpswbKBr5y3jOnjoiHthxWr3yitz3bPPPOnmzX3JHcBvDTYcTwVMS3FxXLn4RwKfTSVhSlR37949AuauPXE+/ghsMwQMASNi9gwYAs2EABz2N9JPDHlinWS1GSYjzdXZuGmjO3TwgOvcE3k2o0a7eUtfFRuLrByEiyRLOphoA8IlzEuIlpIq+Y3+YkLaglwh5NtgooMeQvKl7vFURuTQxrldURKSijgo+UtGNhoTmlMbmkzV96aMyx9PPSkMaGEqApaKZCY770TOYQiR/1Fm1QT5n0/ABeIggM2KCkF2VuB0T5GMYUcao9RBFsMaRzx7oGAgX7msylCNZ6WyDDld2a6w/JjrXFjkJk+c4CaNHO6G9+3hJiHs2KcAYUw+OyBnxw4ecYsWLnBPPfmUW7RoqVuBsGPJvt2CE8U0KadaL8IGhSJ4rnjgBVhqgj6fTxI0/MZOY9FwVVlJSUlpM/3ZWTOGQKtHwIhYq7+FNoCWgsCECRNWw09s/fbt26dLzhdYE1eS1WASOnjogNu8eaM7F0RswpjRrh1WlR2VskScuKh61C+2VKIVH1cYNlN1jL9T7SivKHftoTgwH6caygfVjmSxnkSkKxnJyvT3VLinvF6CTmbSvxO+3il8QE6234m6RqWKIWopsh3Gm/kuAmoW1y1yJ88MngjmidXi8aHzfR2kslrSMYYbocTWVlS4bNQf6owFIQN69XGThg11c6ZOckN6dnU9O3d0PQqQy4VWqhBO3LZlu9u4cY3773/+5Z574QW3c+dud+jQYekin06ug+QKy9qwyGkgJAbEX3BAR1j6CFf1V0vyqDrUY13frVu3pZdddtndN9xwwwtXXnnl8VN4W6xpQ6BVIWBErFXdLutsS0bgwgsvrJo6deoKErE6JDIHCT4B69ize7dbsmihO2/WbNezS2fXq2tXd2jXXpdVWCyJ/dmSCxaQsfhZIjMEqxHFcwzkSzcha8wlEmUkVCB4XLg6LV14Mr2KU68QpTtWr5/o3e9vsnuXSDny24q2m4r8ZNLXaNvJ+u23peG1dGPQtqLnNuW5rQOBIpGXMqGidDGpHqSM78LBGGJkKJJ5XzFXmVPN5ZOwmqgSewlXWe4KoLZ2Qxh8/OgRbnDnTm78kKHughnTXe8ORXIMn7EqEL51yPFaNG++mzfvJffo44/BIX+bq4ZPmGxkaJghckJPjJowZy2eTifmwjhIUtYYTsUKTFl/SUE2Vod/lKydPHnygxMnTpx37bXXvnzJJZfspcHxr371q6bAYccaAmc9AkbEzvpbbAM8nQiMHz/++cWLF99CBsW5UsrCYNqrgBP+2tWrkSgdcz06dnT9e/Zy66A4BESNpE2m8CAkKSsmA7VDc6niIhIPDVdUkujRJiAPqoaGgcIKljLkZAQnikeqEGUmbejEnCoUl47AZEKgkhGwdH1MFXIMUW/UvUyIVPS6qXDUC6Q7Rpw08nJcBa0lWEMIoUValGQj6V4yxkiSQIxyZEUtVTIoXzUVIF+Vrj2Ob499fbt2d1ecMwv+Xn3dyEGD3aAO8XWOrhq5YWu3bnKPPfqom/vyPLdq+Sp5LplqrzYULKMVPJUBIQMtlHJGWj5LvsgBDL/jWKkMkVVTkJV9tHOnbutmnDPjn5ddftk8kLASkK+dTzzxhPvRj350Ov8M7VqGQKtCwIhYq7pd1tmWjsB555234G9/+xsMA7Lzg+hRaIwJ8rRxw0Z3GCHKPpgoR48c4Z5dslTqRtKZXIkTLQqYBybRn5BwcfJWM04U+osfS8GtAnYDXbK61J8fAiTneGQsFRGI7tNzU2HdmPykT7/3SYjft3QES7GJ9kf6GTq2pyM4KduI514FV0hEwvzxNtfqyER9YnZXBZSqLNpJ0GaCTvasp8BnASQsDzmFtIeoLQX5AuvOx4PSsyMWgHTt6y6YPs3NQP7h4O4doXy1l1Ait+PI99q8cZ178WWsdHzwPrdk5Sp3+PABV1UeEC3wPpfH9SUkd7iO5HmJcSz+CUGhFv8oYEjSwcNOCBjC4Xw68apFWPzQoKGDnho9YuSj1159zfwP3Pb+NQ8/8rDjyzZDwBDIDAEjYpnhZEcZAhkhMGbMmHVdu3bddODAwdFUC7i8jSoYtxXLl7ktmza5aSBi/Xr1dIXIE6sSxhUahoayVzDp6ytyWaoPEqIiwaM5BiZJceUP29CcnQS9barylQlB0sukU50yAi88KNl1feKSTAVTcpZOJUtIguIxt6AjJzP+6PmZ4MNjqIjl5hQE5ZxgwJoLRawQqw9r4fWVx3tfdtzlggj179XLjR42zPXv3N7NHjvGzRg3Uvy9NHi9H2HvZQuXusVLFrpHn37cvTx/nqsopwFFuFGtZQV6XBOewrIwIAvhdK3uIOXkRdIF38MqS4mJBnHwmuLi4u1Dhg59ePLEyY/Nmjlz7W0fv23d+g2r3QOP3NeU22zHGgKGQIiAETF7FAyBZkSAeWIzZ858+cCBA6NFkuJkJsqNczsQity6abObNn2mGwKjzJ49ergjhw6JGSuDQboiMlx2Jm/B/2Mb9TOokI2QjFHFKCsrd/kF+bDJCA7SEFIqMpIu9NaUsFuTQ5MSga3PbUtFilKpU1ESmIqc+be4ESkKOtCAfJ3sdTPtS3TszBXkIo+6ylqInzRWrcSKxwrXEeHnjggZTp0yyc0cP9aNHdgPHl/9XA+YsgZaZMzt3b/PzZ37invowQfdKqheq1evcQcP7g+GzvJZIHSMNgYrLoPnUvqpYmZoFKwB8TqERPk4YX9NXl72kVEjRv7jkovn3HnuOedtevPNNx9YuWKFu/Mff2/Gvx5ryhBomwgYEWub991GfQoRwOrJufPnz7+VSTQMKeXSXwmRHAoai5YuddffeKMb2n+A69Wlq1uNJP7sdtAyglhdg15FQ4T+9yDsydASV09WuAIkZjN82SBcl2SMTVF60sFU31b60KRPOvyjUylg6a5/8vuR/ySEtz7kS+7Bgu2SJRV2tGl95OKLgBwF7QSKU1BCKDCNEyoU1ngMgshB+adskJ+844dcMcKQvXr2dJ2LO7q+PTq7C2fNgNXEINe7fTvXNSzqWFFe4TZt3upWoXbpvfff55586mm3/+BBV3YsKC8kzTLsjZJGWLoLxUsd90UCw27qXnwu0QOoYzFdxYtP2F2JZPu5w4cPvX/69KnPX3vtNVuuuur6wytWrnE//9VvTh52a8EQMATiCBgRs4fBEGhmBEaNHrUWSlUNkpjz8qlEIPbDyRaZPu6Z5591nzxy1PXo0sUNxkSbvxIJ/Jj2aM4ZQ+5PfYVKfg6SocM0qHg+FLsrizKxilJqNuJzHtSO6pog9JRVF5Q6Cs6n8sEFA0E+kJK5BsSiXtLykDjFtSMjpFMv7CtJyVS7dCFWv3ZkQDhCMhReUz3elKvAbEsMUrmJKX1InmS/nBpiJ8RKqx2ExC0otS2rF2kpQjJDF/zA0ZeJ9ZLKFTjcIwGfCqmcwePwbAQ1NyE5VVS6/LwCl1dd6c4b1tvNGDHETRwz1o0cPhSGq3nxfK9jx4+7RWvXoZTQPLdg/gL3zLNPua1bSho+wWGVBekD873qAtd7eotpfhvNV/m8MQTKjuIjTO3c8T59+jw4Y/qMu6ZPn77yK1/5SgnqQorK9otfGPlq5v9MWHOGQBwBI2L2MBgCzYzAoEGDtnXo3HHH0YNHBks5GplqOaPDLgCT6PFjx1E2posbO3KUa4dJ7hhDRZofJpSNyfr1mlFAnlQtC8JKpFa0ryAJoDFsNcocBZN/qLxwRVtcZWtIRPzhJg8RNlTnlMT57w1gkyE0Pifp8eHJiUJ4qdSn6PGpEuczUbHYY/pv0YdLjxczXI5Hqq7XR4WDKHGokompl2hnesdwH0DAAHoOPB/kfoVyGhPfK+AwEcuG0zzuVT4WXEAjdVlVZa4YjXaFueqo4QPduVOnu4Hd27uRA3q5AbA4Yb4XSVzpsVK3euNG9+jDD7mX5851K1etcjQI1o2kSlfNkgyKu713P2joKjlnDIGHx+KZ4YNZBfwO9OnT938XXHDBf7DQZP1tt9226/7773d82WYIGAKnB4HM4gmnpy92FUPgrEFg0vQpf1u2cMnNWPsmE7WoIBBRCgsK3P33PeAuv/wyt3znPve+r3zNbS8vdzmYjDmJ5uRhEmduUA7e8T07F2vfMHmKhxh/kwRqUi7uwwQclrnpBHPOnHDCFZsD4QGBGsbvVMRS5WU1JkR+qK6epCQlZKGfWZR4NcrHShB+Tad8Rff73+OLFEiY4sqen1MXPFJJc7ZIdkjERPUKiKzPJ8VYVX6rJ5n8HkYeA3NTaT/EmdYOVDjBc1j/kZSL958VEPJwbC6JHJztB/Xs4vrCVmLmmJHuYqx2HACvr66FwTpHtrgVtUg3g3y9+Myz7v5773Ub1q9zx44cRtNaqwG9zaOjPo4G71KCpcSU7+po72Ek5AvJ9uuGDh16J0Loj8Lfa9PNN99s5qpnzX95bCCtEQFTxFrjXbM+t3gExowePRdE7G2UqVg3kH7nnMwrkM/1xOOPCxHr1bWD69y+g9uJlXBiTxHM6J46xq+cO5mQrcnVnNwDzkAOwM80+2SeTwELgKPsUUA6gtwnUXwSEJFk5McHNlUIUI/TYzL5F106Upbo2un6mUxR8+tyJiVhijnDwlkMKTJRXqQwoUMa4swh8RL+E6xMFcxDxYz3QPAl0ZYwaFgpQb4jHI1wcQG8vjqCoBVCMTt/8kQ3Cf5ek0YOc6MH9nIFcncZQaxwW7atdHMXLHSLF69xzzz1vFu0YAF2QEoLN/7HOo8mvqGthdbPIgnzVTHpaVhWCB+xaDdW0a5du1Xjxo2749xzz32G/l7vfOc7S1cg2f6uu+5q8X9L1kFD4GxHwIjY2X6HbXxnBIERw4ev5vyMMBezxDC3M9cLEz5m66VI2K9ATlAx7CtGDxviVu8qCfLDxByTx2kuUlhvUogAw0oaeqQCQtWL7vpkZEF9wBgm+kCt8WiRhDWDLV1uVcNjGipA/r6EIb8mhiabps41VrTiBFAT6LzxRXPCEj0A/hiYH0blkuxKyFecjAUqF9lstrjLC81ytdnQz8RGC/8H9Yv3l+WERByrAuWGeW8BcsI6d+wEy4lsN2v4CHfxlAnwj+vshgzo77qG/9WtBGneunOnmz9/rnvg4QfdihXL3HqoYGWH4REmbIrKKHzDaOjKawgB43VJvAKVVf4P/Q1yvcC6mHCINxCzYx06dFiG+qd/vfzyy5/9zne+sxkLSHCt+Wfk78EuaggYAskRMCJmT4chcAoQgL/Shq5du2w5cvDwUDHk5Gq5sOTRvj173J6du1y/oYPd1Anj3cMvveAqEbpy4p7OeTTIUQryvQJFTLdAq1Fiwgk4UD+ohOXng05IONI/xteGglYyyZ2KQpLunGh+WLrjTwHkGTfZILRJvgMOLARMVjQGuAtOIF/kX7STkPBeGLNkqR/mlVHnRPYVfL2w0hHeXjlV1a4rVsAOHTbYTUQR7emTJrnBvTq4Hki2L6QZKrZjx466pfCSW7xokXvkkUfdy3C33w/biSrYVAQbroVcMuHcTLQHwc6V5yZcycl+gJjFaXLgAcaNLqvHBg4ceO/w4cMfh/K18Fvf+tbGBVDV+LLNEDAEWi4CRsRa7r2xnrViBK675vqSUaNHrDl48NBQ6BpB8ncYS9q5c4d7Fa76g0DEhvbr5ToWF7q9yOYWDoUYGA1ac5hLxGLgYTFvqeZHghAawJIsSLHv2ipmi7lqqDDZHTvIqjwma0vuEAOaYdgynK4bEbHkypTmPjV811uSimilDQV6ZFAUvEjemE8Wk10n6qjfIIQZNBAfa1Q9i+aV0VKilm7xoS0E871EfZJU+SD/iu4WXBQRuM5zKWQVVqfWuXwoVJ2Quzd51Bg3rn9vN6ZvXzcdBqtdi8L/tKIbpRWH3dNLXnHzXprnFr2yxM17ea7bCcPVYAvz/bAuUrRLySvjAsZggQavFaTfhbHoUN6k1Iofa1GO6OjQIUP/O23atLtBvpZ/7GMf27tt2zb39NNPt+K/Huu6IdC2EDAi1rbut432NCLQp2/vFWvXrL+a7lHBJEu1o87tO3AA9f1Wuevda13X9u1dTxQA31WyA8WVa5FwL2WbhZzQtFXWW0ruUbhJ+CxYGUnCJREyJO0ziZ8rJ3OQJyZ8LUwUr5WSNXTeT06skpGdpv6eikAly+VKdDuacqx/zWhbUZKn4bsG54R5/XXALYj8cnVhGGbEvcqBiSrzvKoqYAFBFQx4d6zNcl1wn3p06+ymjx8Hg9WRbkTvXq53cYErDDtxdP9+t2bVSvfoow+7J1FQez1WOe7eytqigb5ZIHl/AVmmlFVD0ic8jPl+eA5wXYYeuYCDh9H0F/2nPApn+8ISrMy9DxYTjyHZfsWb3/zWnRs2bHB33333aXy67VKGgCHQXAgYEWsuJK0dQyCCwOxZ5zz3wjMvfQLTNwsEitohhZrxedOmDa4SeWJ9u3dzY4YPd8u2lkhBZyyaDFKUQAiykSMUkJLQvoLSCIw34+HJMC8oiKfBgRMLAQqLigIFJSx1pKqYHpPqJtUToDCKGud+8UBYI/UqrjaF5DEdMdLrJ1PBfDuKZH1toH5F1DTZF0DWYEumvPGgKiTT5xcUIgxY42oY4mXxRZBaSZRHuDELalknhH179eruenXs7Kb06uuunjHL9evZCXl+uUK+Sqvr3Pat293qVcvcyy885x5+9EG3ft1m1BKtcGhe8r0k9MwcL9zBYJUmc/wCPy+5x1p1GzdYVE38itw/7qzu0qXLilGjRv53wsTxT19x+RVr3vjGNx1dvXqt+9vf7rS/O0PAEGjlCBgRa+U30LrfchG45JJL5v/yp786UFpe0ZuKVaC2BMnzyxYvkTyxgRKe7OMKoHzUMOwlclaYHySO5/74Akd0aiqBIWewX97xew3IQ36nTvCqqoO5K8NoSPJmYjdX2nlEyW8xWWgySpRShQ/T3YGmhDEzuW4mBC3RMQk9x4Abc7CyqrHaFESsCNjXHDvmCgBoEaSrnrCVGDtsqBs+uL8bNXiIG9O/n+stVIoMLuZKNmyBo/0zbv6iBW7e/JfdipUrYFUB7kRhk7Uc8X958BXL5cpZELIq5pfhntHyFXKXdFNy0Oh8L26y8n+MTZZ27tRpyazZs/58zrmzF06eNGX7a1/zuiPz5r3i/vD7P6WD3PYbAoZAK0LAiFgrulnW1daFwBWXX7V/0MCBK49v29Ybpk/x0FMuiNNqhK1YAJxErHf3Hq5du2J3pAbhRqhciEpJ6JErJYMll4ElghZkFi4WKmX0qaKShlwhyScS/yghCgEJEHEI7cTNSb3cKUWzqSHITHK6khGqRGpWU45N9ASk6r+/r2FuWKA6ivLIUCRXnEKhbN++2PXo0d2NGTTAzZ4wwY3q1x2eXz1cl/DCx+Fsv2nvbvfMM0+7+/53r9u4cTOc7be4MihfAUUGseOKRmT0S4UDCS9S2QIxltsWMC1JCKRSJiti5dSavOzcI71693p65LjRd1957ZWvfPaTn93+2KOPO75sMwQMgbMXASNiZ++9tZG1AATGjB77xNZt2y7BTBxagdGZPcsdhnq1rSQoTTMWock+qDt5dPc+8Z4KlJvA00pK7wTFEOOr9kQ54VI/MXcN3N1p+kp7hbKyMhA5hDTF1ErJWCROlwSXBDnzjY5MRpriOWzCLVJfT0YT5p7zAmH6WnAtRhY1IT0kkuqXFrjYc39QlzEI2YqrV1DMWntLGxBpKLTuoB0IC1iTzJL1gBTl0G5CzFBrXVeEIkcP6u/6Ildv4rixbubE0a4j8u5QAVR8vvbvP+jmrlrjVixb4h566AH37LyX3VFURwgWRARbqG0J5NkxhpRxLSy5ZBHvqqwa6Q9vkXiGCfGSEVTjXh8aNnjov6ZOmXr/9Bkz13z2i5/ZXrJ7h3vqqaeS3CX72RAwBM42BIyInW131MbTohCYPHXy/MeeeIzZ34iAsRQNPaiCLs5d8Iq76ea3uuFQYIZ06+nWlexysSKEr2jQif/JakvxjQJ5w19qHQgGJ3ZO5oF9FhQ0qjoIgcG1UxhMTVWtK4aqQzuEGs74LPrMI+OGpMG1fa7UkDeFnQtDqH4OWHBiPbxBSDQ0dRBy1JiA+aHP+GcmpEtuergQAX1T81lpjfspGIVELA/Mk9SKHlpi5wWiydAeLyehV8EkIGNMkBM/e4y7BisbqQQKVYM9SFaM7vYgV3B6yEUHRg0Z4qaMHuVGw99r2rBhrmcnrDrFVoOGDyDZ/plFS9yLL9JYdaFbtGghCNn++OCZRE8vMd4HhpvraH0R5nyhyCjXOoYUUUm0pIdJvldBQcHWIUOG/P2iiy763/jx40s++tGPHtuwZaP71z3/blHPrnXGEDAETg8CRsROD852lTaKwMiRI3fBZqK0uqqqE9kG1S5O4jXI4Xrp5ZfdkcOHEQrr4fr3gcv68lwkfSNeVRCQG6FEalhKwqOW7r785OHKVXhi8IqNOWQkcQx1kqxlI08pkzyvRMn3iW5dnFSFO5PlmgWkryFBoxKVE/7Ez/UOXTpqdewKDhKHejAwEixoTcjlCopls1mSIVqY1lIdJJsjKQLREqiykWwPPGuqKlxHrILoVlzkBqLG5+yJcLcfOtANxKrHnh3aSzoXDXF37tjhlsNt/uGHHpJ7QxsIFr32t1ysrpRE+nBMJNcMPdaK4kYuTCIZkEzaj2Bj1n0FzFWXYqXjfy+88MLHkTu49cYbbzy+Zs2aNvpXYcM2BAyBBv9dMTgMAUPg1CEwZsyYrd27d1+9e/fu2fWTd0CWNiFHbDvCkyRiUyZMdP988mnJL6KSRVNP+lklDvMFk30DB/1wCDR2rcqFOSgXBwiPA32hWhPkIckWJU2JRp8qaT5t6NEjXgnJH8kUSSnTpehzG9QGqi+0jfNJ1NTGlupXrbDQQPkSIscC2xKajUHBqoWfGnKw+BWH5WK1Y1Z5GRLknRvQs6cbOXCsG923D6wmxrih3bq4zsCEVR1rK+vcphUb3Mq1K91Tzz7pHnjgAbcDZIwkWTexj+CxIF+igokVSECm+ZtYiIQYi+tXEHek8lXVrVu3F6B4/Wnq1Knz5syZU3LDDTfEWFbo17/+9al74KxlQ8AQaHUImCLW6m6Zdbg1IXDOOeeUX3zxxU/v3LlzNg1YOXHrRF+OYt+LlyxxU6ZOdSMGD3QdCgtcBfZzxWM2CkDHWDxaRKFghaSQmjAlSpK8A1ZVH2YU1/XACDYPjhlUw8JD4rHIRCQsk1WNURKnhM4nl+nIm+6nKz1fwq24qcIX5sRR2CIRC+o+wqwW46oE6coJzWmzScKo8nGlIZ3twXvy6PKAhLp8EKS+UL5mT5mEVY4DXb8+fdxIrErtRKjwKi+rcKuRYD/3xZfcyww7LlzoVq1jNaqAtOo7+6pkiyqYX1Rb6ziqLxmO5VaD+7sfNhPzZ82a9Zfzzz9/KdTQba973etqn3vuOfeTn/ykNT221ldDwBA4jQgYETuNYNul2iYCI0aMWPTss8/WgYBhPg9tJzDpk5C98sor7h233uq6dyx2IwYOdHsQrsrixB+wrDhLiSewM9wlnhUegVE+w5wtqWnJSuNBwjoNXRmazDlFockoQcuE6LGckEQRpUhQQCjlXRStLNhJBAnt2SCiFL1y0P8iRv7wuRpLDauyEHJkkW5YTuTjwG4IO/br0slNGjbCnYOSUYN6dJTE+4KQ6B05cNSt2LDeLURZofsffNAtX7nM7Tmwz1WWlgfdpyoXAuyTScmBE/IX1PBURSyw9hKNsaawsHBHr169Hp0yZcq/QLpWvOMd79hPZY0v2wwBQ8AQyAQBI2KZoGTHGAIngcDkyZNX5+fnH0XYsDMncSVjbHItiNcxWCK069jRTRoz2r208lVQpnayyk8ELS61E04WvCdJD4v3jpVvqmBCmgvzUBIIXRjgn5gutCiXi+R1ZRLOjJIy6W+YxB9X9PBbDsaSg5gk1pFKQj7XFJIMxTDWIN8+oGZUwPjKRtgxq7pSaFsBQUHifTfYfQyC0jVmYD83Y9RoNxrFtHsW5Eq+F7e923e7pSBexPfRhx5xL8Pdvqy6wsEfv37jwWIjEaqNAjcXVKiSGBAx7TuIM3dUFhcXbwC5/hfCjs8i4X79+973vj1bt251995770k8JXaqIWAItFUE0v13va3iYuM2BJoVgZ49e87bu3fvLCVhSmyGYuXeP1CaZtaMGe7BhUvc53/yY1de2B62Y4VY8IhCOMz1gpVCXR6Tn/JANHJATvDvJ6yUFJJF0zEpccSSOfhIuoKQXVcoQuVIUhfjBCpkIZFLRqgakTPPmsEnUanCj0rgoqpSFMjcWqxqhBkqs9jrIH/B7QEmp9muknWrSchCm4kYFxsg2T4foyjG4GgnMabfIDd79Gg3rndPN6zfANerQ0C9yior3R4Uz355wTw378WX3crFS938+fNdaWmpRHPzJbuM2WZBIlk18spIBLnJ6s1Q+eL94StUvUjC4DaSVdW5c+eV/fr1uw+J9v+eMWPG1re//e2hnNasj4k1ZggYAm0QAVPE2uBNtyGffgSQO7SSRMzPQ6LysnPXLrdsyTIhYj07tnc9sKpv0+FjCIPlIwLJfC8vBsnP6f7pxDyrUEXLE1UMqwaZYI4hJ1PCmpIjlgq5RCRNw3t6Hr9XgVjlFOaCD+W4aths0NeBFhT5zI1j6BWKF3agGHp7161TF9cHNRwvnDTBTRk11HVmbc6iQkm2L0focs2GzSigvhBFrp9wL7zwvCsp2emOHT0WXC6fZYVAwHBcJa6bi5BuEIKkpUWOy0Ox7hoolHSV8MOQuC+1wLAMiyjm9e/f/1EU037i6quv3nLNNdccY7K9bYaAIWAINCcCRsSaE01ryxBIgsCECROeX7t27TuhtMBhIlBg+KpAfciNG9dLMn3/Pr3dkIH93Yb9r6LkEVUZEBOQKc0PY9PMqAq8u+oZmRAgcd6HGiZqEpLb4fSezQLgzG8K0vrjWyrFSvelIm7SjwSeYdGh6xgbhfrAjyqQ5xUDCcrF0sk89DG7vMoVgoO1gwLYH+a2I/v3d0MG9HGTUVR7eNcOYqzKraKi2i2B2vXCSy+6FStedU8/+aQr2bQ5fmmqX9lU2UJDXIGGg2FRdF5HCq8Hfm41NQxUinkGAapFf8sHDBjw2LRp0/6BhPtFX/jCF7bt2bMHHmKL3C9+8Qt7tg0BQ8AQOCUIGBE7JbBao4ZAQwSwim75PffcUwkiVuTniPGoDes3uNIjx1DXsKMb0q+/iyFESWIVWJHSp6LexkJsqrjq0Fs1GchkwTGihiGsWAXn/kJWECfhI3EKQ42ZhiajZK0p50XPVYWOfSYpq4XRajbDkFC+itC7znn5rle3rm7qyFFuHBzuh3Tv7kb17yVu9XVIy6o8Wopk+3VIgH/QLV26zL26aoVbs26tACxWEjBvDco4MccLHm0IZ7LMI69Lc1bhWXyB3JKAiZtswE5rcvJz9/Xu2eep884971/I91rx4Q9/eEsJLEUs38v+gg0BQ+B0IWBE7HQhbddp0wjAT2wjTD13HD58eLjmXGk4bP78V9y2rVvcmM4TXb/evVxhfj4S7qtcHgmG2laERCvwD0uxCVELVvoxNFkN0lFvY5H4zFMVmmQvNd+KREmJWBGUsAHFxa57l3ZYKdrfnTt5ihvcq7PrgQR8etvTxWv7jm1u984d7onHH3MPPPiw27YZ36FOCfnCi//hogLIb8KtmAOHcdeCjeUgBMkQp+Z5CaPjQkdWVcehhe0Ldw8ePPihyeMn/e/1r3vtgpve9JaD//rXvxxfthkChoAhcLoRMCJ2uhG367VJBK688sojo0aNepVETAkKyRKJynaYiG7ZVuLGTJroBiMBvTfyxHbCWqEWjqQxeGOx1BFrTlIJi+WAWJFziLlpYNoqUhCd56U0kKSehzUNoRKBe2Rjn4QyA2t+sYqQ+pT8Jq77Guikp0SYkwYyI6obVw2G8pHkt9FWguSHeWe0dKANB5UuhEGZb5WNPlKNYg3HGEJ/uXTOR/g1H8326trFDRs4yA1FSaFZI4a7McMGuEIcylcF9u/cWuKeXLbUzZv7EvK9npOQYBVCkfFNJDIZQhB61B3SDxisSoQxyKNTxVAORRSyY9dOGyZMnPiviQgRn3/e+eve9ua3bl+zYo375z/vbpPPow3aEDAEWg4CRsRazr2wnpzlCMBr6mnkib0OJAacJgglav7UirVr3OXXXePGDh7k+mPFY8nhjUiYKgLpApGiQStXGlLlwXcSMVpAsGyROD9w+aSsmgxDlORBkIkqYF6ai2R1IUqSKEX702DjaswgPheSl5CxiL09rCVieAlZg+pEHzKSnBycw/wzKmxcrMlN3OWpROG3mlrYZvBzVTmc76td14J81yE/240bNtLNHjvWDUb4cTByv3qgyDa3SoRP9+zd655/9jn3yCOPIkS7zq1FyJFln7iJv6q3sjEgYCL5hTYXwk7lt6D+ZmBDgdx8DrO2U6dOG2AdcieS7R8//4ILNlx7zTWHXnr2BfebX5iz/Vn+p2bDMwRaFQJGxFrV7bLOtmYEJk6c+Oo///lPiEygDGGyu74/+cQT7r3vf7/rhtqHfbp1dzH4X2WHYUkhWKE6JeMnFyEBY7wN3g9ZYdmdgLyQ5Ki7vnNFCHMeOXYcilWQki7J7FTPwFY0TZ11GmtYKoj5VSB6aNEVV/BYqEwkNwiR1tIuA4SsGv+rQn4XVxySANWgD0ykL4AXWgeQonYozdSnSzck3HdyMydMAAmDwocxdQRz439sDpWVu6VrN7hlULv+85//uhXLlzsmxJdDNdMtV1YzwngD/WU1AiWswaIE9CtkgVJeKDwJfZOyQki2f3H48OGPzpw58+XLL79842WXXbaPzvbuu99tzY+O9d0QMATOYgSMiJ3FN9eG1rIQgBXCLpiB7isrK+ulNhbCq0AwVrz6qjt+5KhrD9IyeuhQ13HhIne8Ckam+fgTFfUJihdUsKD+JN6x2pClrSWsSLJEn3qoVwwNSsgTZKUaqlROHYgZXOippjFsyTAmBbT4qktRlAKfMTrZ05Urh873tH2gkobE+hgMT2mFXwt7iQL4mRVjEUBZ6XEJTRahpFAxCNGEfn3dKBisDurR002fOM4NaF8YFNPGi3YSLy9d7hYvW+Tmopj2E08+7g7vP9jg5ugKS/5IEkYXe16/GqqZbvyNx3m1IGkzUT5w4MBnQbzugsHqYiyK2DxnzpzKZ555xn3/+99vWQ+A9cYQMAQMgQQIGBGzx8IQOE0IoPbgpkGDBr2yevXqG/SSGqIsLSt1JUjY79e/r5syfqIruudeV6YO7+GKQKZvCREjWWE0EqSLoUoRiLhYknWDQNDoi1WAlYhlIE61cKTPohksSBbpF5WvOihgSspIzHLAzKiS5Uu5RoQWccyxnCqppJSTB5IGg1i62xdCdMouq0HeV53rCqWqf6+ebtxorHTsj8LaIGD9u3QUfy8m2+/fvd+th6r3/DPPu+dfes6tXb/Gbd22rRH5UiLq71CSqmqhV2Cbg6iFSnZkyJAhj86ePftehB1XQGncgveKu2GMa5shYAgYAq0NASNire2OWX9bLQIgDnXXXXfdfBCx6/3wJAfEMkdPP/usm33eua5fj86uJ7y09u/b47ILCiXHnvlakgPPPC+Sp7i1Bb3DggR6yk9Mrs/NQTiPxAvfC3IL5PxjFVWihEkNy5B8yVlMpheKhlwvEK8akrRsmJzm1IgXWT5UqayKSrjaZ7l+HTvhBfI1eIg7F/5eA7t3dB2RBybKF1SzrZu3utVrV2Ecz7hHH3vclWzZ7I4dO4q+BLeMghzDrBKVlWhrUEJIX2q/EVhchCfRbAJbu3btdoJ8PQzl676LL754+S233LJz3bp17q9//WurfR6s44aAIWAIEAEjYvYcGAKnEQGQibUgHszWz9GcJ7WbWLhkEcoSwVuroMANGzLIrd6zS/yxyJ6Yay8vspjgJ3Fl4P8LimgjlCgJ+PwJKx7h0cXViyyJVFXNFY5w6ucKSln5iAagbsnqxoCCCTGqAmOCD7/Lqa51ReUVriP2duvQ0cF6w43u28cN79vXjYPdRGf8TvJVibyuLavXufnz5rqFixe5p559yi1fvSqwiqBKxw7yGvn4f6gnBLEOyfxcBICwqhjQBiTMt/MICVgtVLDS9u3bb8ACh3+cd955L6IPO2+++eYSOtvffvvtp/GO2aUMAUPAEDi1CBgRO7X4WuuGQAME4Nq+vrCw8EhlZWXXgAaFqxbxeceunZK43g8FrEcMHeRy5s9FRJGshlUZGfDT1HSwHChQYpSKuGQWVjgyYKmu8SRl+XlQwnBu2THUWoRClptVQEcJEDuEFpFrlYPzYsghQwKYkLaaOrjMgyl1alfoerZv52b2HummoQh5z04dXT84/ncLE+SPItl++Yb1bvGi+e6Zp55AbttKt27tWleJfLaQBQYkTGQ2SmAkYfjMlZgYKtPNcpCMj/R/Ub3C8CNBqENh9COo6bhq3Lhx/3jta1/71KRJk7ZC/ap8FkqhbYaAIWAInK0IGBE7W++sjatFIgBysRIFubfs2LGjq6pB4ksKKkJT1/UItw0hEUPyezHIz7Ea1GIEcaI9BZPoEXiUxPw6JNNXQdLCQkchc1mQyLKoiIFMBT5iLOVDBa0WJrF93d59x1B2kYn8KONYWwl/LqxShM9XHpSx7sVFrnfnbm54n77w9hrmJg8b4gYVB/UcuR2F6/8ry151K1a+6h6HwepLL78Ei4kjMJ0NE+n5X5HQ4wtan8tDp7iqk0W7xXQ1XCCQg7w1WlZUS9hRktZqi4qKdvXp0+dF2Ezcf+mlly5Bov26sWPHxphsb5shYAgYAm0BASNibeEu2xhbDAIItdVgZd9CELGp9WE5Epkst3fnHrduxSp3xaWXIE+spxuKUOCK7TvgBQYVS7LCQLCQpU99rDYv8LCoY7yPWfVUx/h/eM9GW7U0U2UYsA7Ep64cxx135cfLsMoxW5LuO8KSYli/gcj3GuiG9uzmRg8c6Aah6DiFrDoQqKP79ruF8xci7PiKW7BogZuH1Y4Hjxyq9yELxS6SP5qnsoC3qF9I7MfFJTzK/2lCWCWUt4rqcmFgxe3alQwa2P8h5Mz9F68173//+/du2rTJ/e9//2sx98k6YggYAobA6ULAiNjpQtquYwiECCDn6dm5c+eyAHh+vA5jaEa6BjlQdcjpGgAiNrBHL7cYKw9FWcqDlUUO8rxQtojWEjUVoGNQyrIR5hMSRLsHEC8WtkaIT8KNuQV5UKeyXPnena4zjFV7dMjGysbubsaYsW5snz6uX6dObiDqW/I/ArSoOLBrj1u6ZKl74OEH3ALkq61ds9YdPHhIek3RjkoXjVuDhPsw3wxhUPqYhQlsQv7E5R4EUFZ3Yt0mgpbVnTt2XI0xPX/Bhefdf/311695w+tv3I1FC+6OO+6w58IQMAQMgTaNgBGxNn37bfBnAoFzzjlnYW5ubgWJGK8veVJisOrciiXL3JG9B12nft3d7EmT3e6jh+ElBk8urH7MzcZqSJIuqF492hfjO8OPgXdFYK4PEkSvLbxz5WG7wgLXDvUbi2BfMbRzZzcCBbU7deiAkGeOJNtXI2F+w6YNbvH8BW7+3JcdTWV3lGx3h4+XNoAlsJMI6jjSw54rNxlyzEY7LGvEvXl03BfDV7yEObqqXgP7PD9oyKD7Z0yb9tj1N1xXctVFV1Ru3LjB/fmOv5wJ2O2ahoAhYAi0SAQ0+7dFds46ZQicjQgsWLCg+IYbbpi7a9euiSRPWuaIdRs7tevgnnn6eTdxxiR3CPlUZVxdSNULKpOEDUmJwNu6UgQjifMAkoz38BUUEQoXLeoxOKC8vMxtg5/Xo4896l5dsdzNe2WeW7UcKx29TWgXlLRgNSPFNklEk7qVgR8/D+ASTn6Qq3LNZi0c8Y/36tvnhUlTJv9nxjmzF5xz3rlbr7hwTtnZeA9tTIaAIWAINBcCRsSaC0lrxxBoAgJISv8lEtI/JJSG3l8smg0DVpKfP/3pT+6qq64StSkHCliwsrLhdhy+YyRwanoacKPADoIkie/Hjh51u3bvdqU4thB+ZFu3bHGPP/G4Yz7W+vXr4wSwAQnTNvAjV2HS5T5qMxEeL5wPYdCDqBjw+Phx4/53CZLtP/7xj29pAgx2qCFgCBgCbR4BI2Jt/hEwAM4EAiAst/z0pz/9sxKxONnBD127dHFYWSkEyLN4aNDNffv2NSZiARuTBHkxxQiNUYPwJfK1QPS0PBCJn5qmqrEqj4marEbIHslXVVFR4baxY8fdDW+vl2bMmLHuYx/72OYzgaFd0xAwBAwBQ8AQMAQMgRNC4Je//OV5CEvCmyLgTPgsLxAkNRY7qXfWFefLb5+fEWaU60R/57HaB+1PeAxXOlZ27NhxKTzQPvuZz3xmzD/+8Y/2JzRoO8kQMAQMAUPAEDAEDIGWgMBTTz3Vs3v37uuULJEE6WclUSRNPplS8sT3KNHS36LEzm/Lb0+vp+QvQgBr8PvRTp06LQD5+gIUryn//e9/O7cE3KwPhoAhYAgYAoaAIWAINAsCWD1J74a4EqWKFN9TkbAo6fIJmu7j+X4bqnj553rKGEOO1TjmGMxVH7r66qvf8sUvfnHII488ojn/zTJea8QQMAQMAUOgMQJmX2FPhSFwhhAYMGDAKviJUd2CFVeQeC/2E2IXESTfc/MT8v2uqiGs/ubXbdT8L22Dx3CFptZ1ZLO4Zi3KLe2G8rX0wgsv/DP8zZYPHz58MwqTV4OEnSFU7LKGgCFgCBgChoAhYAicBgS++c1vXsLi1iRFyUKQ3NeEl7pXJHoPilZC+crLyzsAwvWfG2+88Y1/+ctf+p+GodolDAFDwBAwBJIgYKsm7dEwBM4QAsgTK7rpppv+c+jQofOgTJXhVQo7iEqoWXkkZlCs4qFBKFlZIFAVXbp02c3jkNPFQo/qa6FkjSshs3gMVl3uxTmoPhSrQVtVIHyVVVVVtX379t06derUze9+97vXnaFh22UNAUPAEDAEPASMiNnjYAicQQRuv/32LBCkQSh+nd25c+djIFhUrXIYRoTVBA3wYWCfU1dZWVkAklaDBP8jeK9t37592YgRIxobjJ3BsdilDQFDwBAwBAwBQ8AQMAQMAUPAEDAEDAFDwBAwBAwBQ8AQMAQMAUPAEDAEDAFDwBAwBAwBQ8AQMAQMAUPAEDAEDAFDwBAwBAwBQ8AQMAQMAUPAEDAEDAFDwBAwBAwBQ8AQMAQMAUPAEDAEDAFDwBAwBAwBQ8AQMAQMAUPAEDAEDAFDwBAwBAwBQ8AQMAQMAUPAEDAEDAFDwBAwBAwBQ8AQMAQMAUPAEDAEDAFDwBAwBAwBQ8AQMAQMAUPAEDAEDAFDwBAwBAwBQ8AQMAQMAUPAEDAEDAFDwBAwBAwBQ8AQMAQMAUPAEDAEDAFDwBAwBAwBQ8AQMAQMAUPAEDAEDAFDwBAwBAwBQ8AQMAQMAUPAEDAEDAFDwBAwBAwBQ8AQMAQMAUPAEDAEDAFDwBAwBAwBQ8AQMAQMAUPAEDAEDAFDwBAwBAwBQ8AQMAQMAUPAEDAEDAFDwBAwBAwBQ8AQMAQMAUOgDSCQ1QbGaEM0BJqEwNNPP82/i6K6urpcbHiry8/CFovFsvE7Xzl85/fi4uJaHBPD93R/S7If50hTaNNVVlZm19TUuKDpGNuQQ8J3Hq9t8pr6Xd7bt29fg/N4KP+ff46OtUF/2Dyvg+tl4bo5vD6+14WX1fP13Oh3uU5OTk6M441cM+GxOlYey+tWV1fn4Lp5YT+i103URgAGMC4oKKjCqzqDm9gAY16rqqoqF6+8EKO68J3Xi+KtWMo7zs3BWCt4/71j/WP87sg9YF/De0uM84E1v3Os0Wejwb307jc/ZuPeloX3NtX9iO/TZ4rX43XDe1sbXlfHGsW4QR+ys7Oz2rVrV+49cz5Gciv8AeuYOD7v3tbhe034LPM50ZdgSGzQP3fVVVeVZnAv7RBDoM0gkG7yaDNA2EANASLwhS984aI777zzi5g02nFS1AkxJEuNCBH3c19kMlUwU/59YcJke5lsfjvyGRMnJ7kmbyQLCYhBo4k2bLgRQcJ1Oak2ZVNylM3xelg1mNfTNXgC15Ux4ZokzSe0sa8kGjhZ8c/4v5fhvfVJMvsQvY+N7mt4b6PkL1H/G5Fn3tck9zbV+ON9SPNMJSXrvGZ4b/1++wRQP9fV1tZWfepTn/roxz/+8eUndFPsJEPgLEQg9ywckw3JEDhhBA4fPjxg27Ztl6ABTuAZT7wnfEE70RBoWwjUHDp0aACGbESsbd13G20KBIyI2eNhCHgI5OXlVeKrKF9UuzRiGAkVnRRm0TbDcN1JtZnJyf51T8W4Eso28YirAHpK8Ex1Xb1vZwJj9utMXLcl31sqsgj3VmXyvNoxhkBbQcCIWFu50zbOjBDQcGEYchTywI15N829JSJGzX2NdCSlPjXt1F/5TIzXH9/ZPlYlfnz3Se+pv7MB4czkugx/nkD49HQMwa5hCJwxBIyInTHo7cItGYEzMWmfbjxSjRETpnSHx/DF76ru6DsnexJUKByOiw70OCWtychAtB22HSaYxyd0vTbb1j7oeTweuUbx/vEDFhLEybLfP59Ea3/4rtfU60QVTx2bHqft+8TcV9uiePmkxO+btnuq7/XpfH79saS7LhWxJHmCpxoSa98Q+P/tnQmMVNW2hg/ddgNOgKKCKAqOiPM8TyBGo9FLREFBkUFEgQeKvBcTr8YY380VpHkiOIA+vWpiNM6K4xNn8SIi2iiDGkVBcIggIGrT9da/u/7j5nRVd1V1jV3/SSrVXbXP3vt8Z9h/rbX22kVLQEKsaE+NOlYgAkln8BWoPwVpFsII4gJCCH/jRUHkiwwKJXayORHGchRFqJOiKpGwibaL8vgM4oYiy9+P9fvi0f/MF1JNWcso5ng8UeHn1+mLvUSiBPuCpS/CEvW5ICc6z43CGgYxludm1ZwIFDUBCbGiPj3qXAEIKEDfoFMoQERAjFjsXNChQ4dgu+22CzZu3BisW7cu+O03ZDtoKFtdXR107drV/Q1xtnLlSlcukYWEIgz77LbbbqE1bMWKFVsIPl+4WPqKwNJJBJbawZX5+eeft2gfn3Xs2DHo1KmTEz2w0LE+fIYX6rNUC4FNxnB97Natmzsuiixa9vC+du3a4IcffnDHhLb5nW85o/v666+/dvXjFU9HEh4HBCPa/Pbbb0MBSWFbgGu7WJqUECuWM6F+FAUBCbGiOA3qRBER0CARPxm0gO29997BiBEjglNOOSXYcccdg19//TV49913g3vuuSf49NNPncA4+OCDgylTpgR77LGHE0JDhw4N3njjjaSnFXWfccYZwW233eZEnM2kCyZNmhTu47sfIXAuueSS4Lzzzgu6d+/uxM6HH34YPPbYY8GcOXOc2EMf+vfv7+pAfRBblq8q2LRpk9t3woQJri9fffVV0K9fP1f+vvvuC3r06BGKJrpfIZ6ee+654MYbbwxmzpwZ9O7dOxR3vqsU5X/66afg4osvDgYNGhQMGzYsFGK0kqH8d999575btmxZ6D6lsCui6z6fXck4pUg+O6m2RCBfBCTE8kVa7ZQKgbIfJOiShCVnn332cYLnkEMO2eL8HX744U5IXXjhhcGiRYucq3CvvfZyQgkbLE3JNlrETj311KBXr15hsQMPPDB4/fXXnejhtv322wdTp04NLrvssi2qO+CAA5ygspxUwSOPPOKsXWhzv/32c+WwHy1dsKT17NnTfe7HtaG/EI6Jtl133dUJPBwPhGiybZdddnHHDrG45557JixmiVIbxb6xb6VyU2Sxn7A4a9zJIlBVVfoEdEOU/jnUEWSRgA3UZS/EYC2CCIMQscSboQiDu+6zzz5zVqSdd97ZiZ6xY8cGo0ePxioB7sUNFp9kG12dsLAxFgtljzrqKCdqIFK4P8TWgAEDXFXoE9yAEDYQQHjdcMMNzooGVyg2Bv3TRQjhZZn1w3YY84V28Dk29AGuzh9//NGJQFjU4ErEvrW1tc4di78htLAfyq9evdq5L2EdRFvc8B3ctnBr8jjgIvXj4Bjjxvi3LF6+JVGVsZT7vyTOlDqZLwISYvkirXZySmDJkiUVNlBXxxvBlLpoZm+275Z2iVtlXLZ3c6uFCmLDhg0dMMU+nik8HNhpxcnpQRRZ5RA8ffv2DUXMjBkzgpqamuCCCy4Ipk2b5sQS3H7XX399o54zNixZUPpBBx3k4sPIFe/77rtvAEsUhAvFzZlnnuliw7DNmzfPtQfrFqx0cJPCYnfyySc7qxhFFWPE+D/6GR370T+KPfw9efLkwFZUCIPqIbAsuW8wceJEFyMGi9fbb7/tYtQQ+3bTTTcFL7zwgmMDEci60I4tkYUVGlwMG/vy/fffhyKOVrnmZhgW2eXQou7414GJ0nBCzOeff15l5xrmU65CEGbhh66O38db3LsI9rctZqK4bv/9989aXhmz7LaxZ4Em67ToTGvnTAhIiGVCTftkTGD48OFnvfLKK+NsQKtH8lR/mR97uNbh4WoPbXvWuqV4uLYj24uuDxguLXTRRRdBVPF6jq4lyLUg8bAP14lEO7ZPm0MPPXSDWUHW2QBRaYPrUdau86uV00AZPaE4doglBOjDEgW336OPPhqsWbMmePrpp51g6ty5c+jqY+B6eKLieaVo8eLsS8adGXMnbrDRQgQXIKxsEGIM+kc5bLAoPfvssy72CzFXy5cvd0IMQgcCjmU44Pv9aWp2JPZDWVix0G50g+ULG773Z4TC4pWoPMqamHeWO8SnhQrCMwLR6pfxTVSCO+IcxI+7zQMPPPD3Y4899mKzSFYPHDgQa2PiB5QfmwlxhR9TjZZ6iotY3OdY+7TuiCOOwBqk7j7Gu7dPsiWZ3JqXdk23hZiz66qKy2cNHjy4zn4cbH3WWWf989577/2/EsSsLpcoAQmxEj1xpdrtIUOGvPzRRx9dvGDBgoF2DMmWEcrHr1LfPeK356xlvgWsXAUZLGKwBsFVByEESxA2WIBuvvlm59rjrENYtxJt5BidKXjYYYcF7dq1c1YniCqzbDhhBfH36quvuqrQZpcuXdzfqAdlsWFAhyCzwdz9j/2wZXqemprFyP77rla0DybJtkT10aXJWailev9m2m9aAfFuEyYOxysNQcofUpk2n3Q/P5+cFao7+uij/9fE4QcmxLLelioUgWQEJMR0beSVgAVo45fukCOPPLJq/vz5A/x4EW8gdSIp3VCSdAdiT2yF3aAFx3etpVtvXoHmoDFy4WxEP6cYRSpEGAYxWMtS2fy4KFjCGKQPy9Lzzz8f7L777s7thzgxCDTEm9F6hvrRVvv27V1TqAtCjBvdmBBLzNmVSp9YBnWbZcXNymTc1gcffOCsf4k2cknWBmLJMIkBrknUZ+439+K1RZ7Yv1yuLR4nWHNGbPRea+KcJY0p838wpfu8YG63+HUWM2H/yPvvvz+yT58+6Vw+KisCLSagqfotRqgKMiFgImygPfgesodgPQdcPEj5cEz3oUrhRqGQyrsvtvz2okHUmfQlEybFso/PhcJm1apVYXC7L2D8GY7J+u8nM0XdcCVSiCH9w9y5c8O6zSLhXJ4oB2sb3YF4h2ijEPPbZdB9Kn1J1EecX6SXeOqpp4JnnnkmmD17trPMJdt8gRgtA1GImLUHH3wwePzxx4MnnngiOP/888MEtJHBv1hOec77wfuR9xZThfj3eyr3bLQMO57uPcrVDuL9iR1//PEPmAjbcmpuzqmoARFoICAhpiuhYATw4LOB9yHrQMN6NfGNA12u3/04oqj48gdMiryCgSpQw3SnoXkIDFq//EG1ua7xHPoDL+LA6HJEnBWsT5i1iA3pJJgCgzMg8bnvGo1akeg2RPmmZms2Jax8ERddLSC6H606ieqjIPCFAf4GP1qC/OuuOX6t6Xv+0HIDTzxFCc5rS+9z1JduHVySy66Z+mOOOeZBy4t3eWtirWMpLQJyTZbW+Wp1vbVB+DKzjG0yUTbcHs6V+XQJNuUW8q0e5eI+il5cvhBCDBhcg8msQf56iv5AG4nBcbFVxx13XLjW48KFC13s2XvvveeSwkIEnXDCCW6GJNqi+EP9zAXGbPXsL1NDMP4K32PQ95dB8t2C3M8XS2jvyy+/dF8huSyD9NO94dAm6oG4pID9+OOPQzc7Y6WiQj/ddkqtvG/1prDOx31F0cvZq77gtut7s12Ls+zau7LUeKq/rYuAhFjrOp8leTQmwkadeOKJmyw9wNU2kFXSelLIg8nHIFHI42uqbT9GzBctUTdSNNbJt0YxbssXQ6gLwf8nnXSSqxYxVAj8R7A9xAuFEXKHIZ0EXJMMikfbSCnBMshjRnHF2DF/kMV3EGYoj3p4TOijb42hWII7siUB2r6oQ5qLK664Isyr5lvJ/LiocrzG8n3MFGJ0sfPHhfUDImyGibBxxXofql/lQ0BCrHzOdVEfqQ1e/2EugmqzTIy0h2fZJ1Ut5MniYAlrFIUU3Ur4Dnm9Ro4cGa77iKWCmACW/WZsF11A/ByB7JxhiaB85Om6/PLLnasSgyXaQwwZksZCnCFtBDa0i/J4P/vsswNk5afAYSLZqFuSVpj169e7OijGOBhTkGE/TBTwRSfbTPU8+AIDwhB1sl9kR/ckXah0y6XahsplRsCfKBK/BiDCppsIG59ZjdpLBLJLQEIsuzxVWwsImAgbbdnWf7dM6WOsGomxFrBs6a4YsJYuXeqsUFwwG8lVMfsP70hoCkEGsQFrEjZ/2R6IJl/E0UIFtyP24+CIdRy5UTjtsMMOAfKHQYh98sknAZYzQn+wzBKWVrr11ludUGN5uDexIb0F24QlDTMxMbuSyxihf0isCpGEAH8KOQgkJl/FfrTm+Rnz0+EJUQqRh774aSvolsS7RFg6RDMvS4HsvW+2Z8xke8b8V+a1ak8RyC4BCbHs8lRtLSRgD8jxp512Wr2tOQiXgcRYC3lmsjvdORAtWFybwfNjxoxxCVcxsxHL/mDDjEfEVMG96Af3X3311cG5557rBA8+N/dz8NBDDzlLFpO7IvEpLV4QLlgfEkII+csguDDj8KWXXnKpINAnWMJgUYMww4bBFUlTGeiPuCwsTQSLGxLRQiBCzJ1zzjmuPPrx2muvOaGFdjg4w3V56aWXuhg1HjvEHSx9nJGZKkcITOQ3w/qY2BftYOkkrEiAuDNa5VKtT+VaRoC5yuKTcers+vuHXbM3tKxW7S0CIiACZUDABjNkVEy0VFF06SL933g5pxYzMWHk6rDzELOEq6ZZGm+WTiJmqRlcObNgxb744ouE5fDh9OnTY2bpitlSVGGZW265JWbu6Ji5iWJmKYtZjFb4neUWi5m7MGYCL2ZibIt6sUQOXtjwbuIqZguGY92b2KRJk2IW/J+wHxY0H7OFvl1mdYtVi5lIS9rfJ598MmaCMORoKTViZh105U1gxSzp5xaM77jjDvedibxGdZoAi5m71bWLl4mDFp8fMNcrNQZgbqzq7DqbXAaPTh1iCRJQ+ooSPGnl0GUkVjz99NP/x47VrSXHOBs/KLocOBTqGJmiAZYsBJ7b9H63dA+sPJjlCEvZhAkTgjlz5oTWJnwHaxPe+YKbDu5L7Guiy1nO8BksWVgqCbMVMWPynXfeCcwK6vaD2w4zJJFtH3nG0A7ycsH1yDQacJu+/PLLrl64KWHVgoXLBJ9bCByLk8PdiPpgMUNOL1teKzCxGLo0URdfKMu62WeyxzWH73AcfPcnEaAcXa+wvGB/vlAe7l2WwXsmKTYKdR2UUru8ZnG+/LU/odctt9s/7DqbWErHo76WD4GkGYvLB4GOtJgJWDzHdHNXjraHbAVjbOhSKuZ+t4a+wa2DwQ2iAnFWiNvq2rWrE0cQZljzkcIYcV1wO3bs2LFR5nSIk9raWieIkOwUG4QYhBTqojsQMV34HsHuEFhwe2JWJc73Tjvt5FyHEF0QRLZMlov/GjFiRID0EBBxEGMMkMe6lbZ6g4tHs+V0XBm6MNE+jg2Ll9PFis+YSw6DOFyaEIfoJ/qHPvXv399NGIC4w3cog77he6TkQP+iKw3gO0wWePHFF907487ITddydu4Uunz9NCoQy3Y9bDZr6xQ7X/+ZnZZUiwiIgAiUIQHLeo1o8M02QDrXDgwQeuWegQkb5+6DKy0Rd7ovUz0n0XI4nzyneE90TtF2svZRnm4+lmnqGvHbZ9+buo7YJ7oUo2XxPepJpS7sy/bJVNdwdq9h8PXZ2v9/mAiTO7IMxwwdsgiIQJYJmHusU9++fe+2hywWNpQIywMDig/GNOEdwsz/HIMeBz//naID4ii6D+uhgKGISSS48Bnb8MUQP+e+vhCiMMNnFGXRfvrHgL8pqPi536bfh6joYxvNCSvsZ9YZd92SU6riTdd76vc7r1Uws3P6m1lXa2wChyakZfl5rOpEQATKlIC5J7uZW2xpqtYXDWCpD2CJWFEo+aLHFzT8G/v6osK3SvgWs6jQovihUPPr8QdU1MEy0fbZt/jA6/oBwUPrGEUW24pa1lDWF3isP2rp4jHRQuiLt2R1+0wTsZIQa9n1Gb1meU74fDBX+ofmru5cpo9LHXaJEVCwfomdsHLtri3I/DcLeu6smJrcXwGIt8HGmCl/HU58h3PAhK0oxzgp7of/eZ4QY8a6WA/KMdN5NKaKecCwD8phH8ZVoS7Uy3fmLWM6DOzrp5tgOdbDTPsoh33QNvvMfuLdT0KL/3nM+Jzl/b9Zf1NnBmVYjv3K/ZksnxZ4TZKzzejtaQu4n1s+BHSkIiACIpBDAqNGjbrGrBEbMObnwyLmW0n++uWN2DSkdEjt1aZNg9vOr4uWFf84om6yVP+PWgSa+9+3TqGs/39TbbKvmXCPHnv0+KN8/LaSfZfoOKN98y1Qifqf6PwmYtAc0+j3UcbRdtI93lTbz/TcRo85WXu20IW77isqEMeH6xoxgw2fRV+J752G+9b/jhbXVI8x1XJ+G/bMWD969OgrcvhoUtUiIAIi0PoJWGLQq+woN/PBnYkgSPUhToHit9F8exBoiV5wvaQ0sQDpObLxKnTsXHPHkK3+NdVOU20017/mvvfrjpbld/7n2Treptptrs/4Pgv94HXM67xBjCW+7iG4Gv9g8u+jpiZfZNrfRK5etGmWz41XXXXV8Nb/pNQRljIBpa8o5bPXyvs+bty4UTNmzKgxt0M7uBzozvKX0sk2AktPELMUDCst4ed6cz+1tVcHa7uD/fJPy41fV/fnqt133+3f1r8/bZBAlk93r9l7RdyVV2+usSoOPFZms7XjcqbZxvvSf8ff4f/g4ZXFYOuqj/AI/0fd6APerd3qeF/govsjvh/b5sCdCK3bPwnzaNvh8eLYzMVYaSyrub8NxkjWG92izyMeM9pF/T4Dvz3/b9dHtId2bau0l/1ZUYfj5HsCVj5393e8r9FzkeTwG8rj/KKvONb4OXdtekIkek6j5xv1RPvin+vG0LY8t23j57aNnVtMbonu6zPeoi8eY+96gku1ImY8265atepIszLtEocTuoz9DsVi9VY+ZtdVlbtf4+t6/mR1b0AAvX3W3lYa6M4VF3y3dzKwqXwOZr473HePwzJ25ZVXjrGkuw+kUpfKiEC+CUiI5Zu42kuJgCURHTNr1qzb7UFdhZgeCjG8+/FJKVWWRiHLpv6H5aBa0KtXr7dtyZ0fbeDoYIPqvjYYnWCvLqlUZYPAJ5WVbV6wRKT/bRnf16ayj8qIQDETWLz4s61raqb93RLfjjRhuQPuycTxmsir1nAkdu9ssnJv2OsTK7vWEgFva2uVHm+vk5AUmLFy2Yj79IUY//brtz5sGjZs2HhbveHuYuasvpUnAU3tLc/zXtRHbWsajpo5c+Zke0DDYuQ2BEf7yRpzdQA2QFQvWrToWFuzcG9blqbWEoiusl/yPewXfJdUBwwr17OysqKDWdZ+y1U/Va8I5JPAAQf02jh48KVtzZraAfch7sfElum/DKomiNqZNWpfS8672ZL/br148eKDLKnujhBIuZiwQCsx71P+YMPEDOtru/vvv3/K2LFjN5pl7F/5ZKe2RKA5AhJizRHS93klYCLsyjvvvBML922FBystYfwFjgd4Ll2TOFg8yC3je2dbxueUNWvW/GnWsaqOHTvZ5w3f+RtdIJ6rEF9vY/93sr62t7/h+tMmAiVPwIQNRFhl3N0YziD1D6y+HrNaG5YYwr1hC8L3MAtYjxUrVoSrFPAew3u27mf/vuRzA59xFi5WXbAfU9vcfffd07EgvT1jJMZK/opsPQeQVtxL6zlsHUkxEjBX3si77rrrdoowP86D8Sa5FmF8iOMdcSy2NmHVm2++aUv0LHbpDrimIV2kHACi8SnGt519Fo2bKkbs6pMIpETARE014zSjP0b+sj5VunsE9w7W+8TSU8uWLXMijAKMcWG4PXJxPzOVBevnGqLxe3p7E2Mzr7nmmsEpHbQKiUAeCEiI5QGymmiegD0YR9TU1NyJYF7GhDW/V/ZL+OKPv6axaPPHHy906wtawLIbaCgMfTcLB6O4dQzWZlnDsn+KVGPhCLhJHhRU/J1BazDvBawPinvFXPxufU3+uClEt313Jftr9+429qyZdd1110mMFeKkqM1GBCTEdFEUnABEmLkKptiDvIrJOQtpTGKwL4RVQ6JPJDDdbItcrwjeeustN8BAiNnMynBRbPQbC0IzGWh8dh5m6mkTgdZCwI0X/LHCZLf4bNttt3ULri9YsMAWhH8vsBhLZ0Hmj6pC3c9+u35yXswCnTp16l0mxi5tLSdHx1G6BCTESvfctYqeW4qKK2AJs4f49jggZj8v1MH5FjG6OBqyJlTYoFLlXCwLFy4M4K785ptvnBCDAEO/bUaZ+z8u5Oq6desmIVaoE6l2c0HgT9wTuL4ZbI8fIPh76dKl7p6w2ZXBxo0bwvuAluNcdCbdOn0BiT7bj6ZtJk+ePGv8+PEj0q1L5UUgmwQkxLJJU3WlRcBiwoYjT5jtFOa1ohUqEvyeVr3ZKOz/2v/LpdGQQgvfrVmzOrAFhQNbkDz45ZdfnBijK7Oh7zG5JbNxIlRH0RAwDbaJIozLROHanz9/fjBv3jx3T8B6HE0lUUjXJIWj3yc/hMA+r7Jn0O3XXnvt0KIBrY6UHQEJsbI75cVxwBMnThwybdq0O+1XaXs+LNEzPxi+ED2lAIuurwht5eclspxiZgHbEFoCbGaY+56uVXvAbyxE/9WmCOSKgCVr3dhwjVe6XH7Lly8P5s6dGyxZ8rkF5/9uzTYkEPPdgbRCFco1yf74ljyKSb7bxILtzCo/w55Jg3LFTvWKgAiIQFERGDly5BD7Rf2rdaoey524n9Hxlz0cs7AkSzaWdUmvDhxH9+7dY3369IkNGDBg3aBBg2pqa2v1Q6eorjx1piUEBg4ceKtd2z/369cvZm73WPTe9e/jEvy73kTmens2XdQSRtpXBDIhoDximVDTPhkTMBdAL/v1eYsF9yJr/QYsQwPxZX9X4d0e7nXxv+Hi4LI2aC/ZKhAuRYT94m2DV3wAcB/FO5lI2KHuerzQlrX5J/uA/nj7+fUkOma0iSWLKtH26tWr21nyyh969uy50l5f9O7dO9lyQBnz044iUCgCdp8sse3fFoi/m13nO2IVCiwlhf5gqSz8HQ8pCJemaq6v8fuWP1hSWukF9yjuW7zbC/fwVvH7tqn9Gz0PzBrvEkZjYk18Saw/Zs+ePdmeUbVTpkz5tLm+63sRyBaBlC78bDWmekQABOxht7PNOIR4wcuegxUQUlvBLWmfY70+l8wV38UFGN+j6/65h6uV3WzuhUoL+Md+EFLRxY4TrqMI8YU2rM06a5vrQSYUbvEzF12br96C99ta224gwPqJ8Yd7GxOaK/v37y/3pC75VkXg4Ycf3gvraNr9gnUj3Q1kIqyuffv2v5uYwQ97u61ckCTuWd637jaNgsD9ZzMrK3EP4UdRqqD4bKiurt5sL9y3WN+Tzwu/mkRrr6IdPC8q8MKzwvqPvmN/3M8xO7Yfhg4dmmgt1FS7qHIiIAIiIAIiIAIiIAIiIAIiIAIiIAIiIAIiIAIiIAIiIAIiIAIiIAIiIAIiIAIiIAIiIAIiIAIiIAIiIAIiIAIiIAIiIAIiIAIiIAIiIAIiIAIiIAIiIAIiIAIiIAIiIAIiIAIiIAIiIAIiIAIiIAIiIAIiIAIiIAIiIAIiIAIiIAIiIAIiIAIiIAIiIAIiIAIiIAIiIAIiIAIiIAIiIAIiIAIiIAIiIAIiIAIiIAIiIAIiIAIiIAIiIAIiIAIiIAIiIAIiIAIiIAIiIAIiIAIiIAIiIAIiIAIiIAIiIAIiIAIiIAIiIAIiIAIiIAIiIAIiIAIiIAIiIAIiIAIiIAIiIAIiIAIiIAIiIAIiIAIiIAIiIAIiIAIiIAIiIAIiIAIiIAIiIAIiIAIiIAIiIAIiIAIiIAIiIAIiIAIiIAIiIAIiIAIiIAIiIAIiIAIiIAIiIAIiIAIiIAIiIAIiIAIiIAIiIAIiIAIiIAIiIAIiIAIiIAIiIAIiIAIiIAIiIAIiIAIiIAIiIAIiIAIiIAIiIAIiIAIiIAIiIAIiIAIiIAIiIAIiIAIiIAIiIAIiIAIiIAIiIAIiIAIiIAIiIAIiIAIiIAIiIAIiIAIiIAIiIAIiIAIiIAIiIAIiIAIiIAIiIAIiIAIiIAIiIAIiIAIiIAIiIAIiIAIiIAIiIAIiIAIiIAIiIAIiIAIiIAIiIAIiIAIiIAIiIAIiIAIiIAIiIAIiIAIiIAIiIAIiIAIiIAIiIAIiIAIiIAIiIAIiIAIiIAIiIAIiIAIiIAIiIAIiIAIiIAIiIAIiIAIiIAIiIAIiIAIiIAIiIAIiIAIiIAIiIAIiIAIiIAIiIAIiIAIiIAIiIAIiIAIiIAIiIAIiIAIiIAIiIAIiIAIiIAIiIAIiIAIiIAIiIAIiIAIiIAIiIAIiIAIiIAKthcD/A+PJP2ZCTnWnAAAAAElFTkSuQmCC;" vertex="1" parent="1">
          <mxGeometry width="198.63" height="133.18" as="geometry" />
        </mxCell>
        <mxCell id="kpIaRWWuOvW8xcpBkI8O-16" value="&lt;font style=&quot;font-size: 14px;&quot;&gt;Filme&lt;/font&gt;" style="rounded=0;whiteSpace=wrap;html=1;labelBackgroundColor=none;fontSize=14;fillColor=#dae8fc;strokeColor=#6c8ebf;gradientColor=#E8E8E8;gradientDirection=east;" vertex="1" parent="1">
          <mxGeometry x="70" y="200" width="160" height="85" as="geometry" />
        </mxCell>
        <mxCell id="kpIaRWWuOvW8xcpBkI8O-17" value="" style="endArrow=none;html=1;rounded=0;entryX=0;entryY=0.5;entryDx=0;entryDy=0;exitX=1;exitY=0.5;exitDx=0;exitDy=0;" edge="1" parent="1">
          <mxGeometry width="50" height="50" relative="1" as="geometry">
            <mxPoint x="230" y="242" as="sourcePoint" />
            <mxPoint x="320" y="242" as="targetPoint" />
          </mxGeometry>
        </mxCell>
        <mxCell id="kpIaRWWuOvW8xcpBkI8O-19" value="N" style="text;whiteSpace=wrap;" vertex="1" parent="1">
          <mxGeometry x="240" y="210" width="40" height="40" as="geometry" />
        </mxCell>
        <mxCell id="kpIaRWWuOvW8xcpBkI8O-20" value="1" style="text;whiteSpace=wrap;" vertex="1" parent="1">
          <mxGeometry x="590" y="210" width="40" height="40" as="geometry" />
        </mxCell>
      </root>
    </mxGraphModel>
  </diagram>
</mxfile>
